<svg width="14" height="10" viewBox="0 0 14 10" fill="none" xmlns="http://www.w3.org/2000/svg">
	<rect width="14" height="10" rx="2" fill="white" />
	<mask id="mask0_1_973" style="mask-type:luminance" maskUnits="userSpaceOnUse" x="0" y="0" width="14" height="10">
		<rect x="0.25" y="0.25" width="13.5" height="9.5" rx="1.75" fill="white" stroke="white" stroke-width="0.5" />
	</mask>
	<g mask="url(#mask0_1_973)">
		<rect x="9.33337" width="4.66667" height="10" fill="#E3283E" />
		<path fill-rule="evenodd" clip-rule="evenodd" d="M0 10H4.66667V0H0V10Z" fill="#128A60" />
		<path d="M6.33329 4.66675C6.33329 4.29856 6.03482 4.00008 5.66663 4.00008C5.29844 4.00008 4.99996 4.29856 4.99996 4.66675H6.33329ZM5.99718 6.39745C6.31565 6.58223 6.72361 6.47386 6.90839 6.1554C7.09318 5.83694 6.98481 5.42898 6.66635 5.24419L5.99718 6.39745ZM7.35819 5.22919C7.04801 5.42757 6.95738 5.83983 7.15576 6.15001C7.35414 6.46019 7.76641 6.55082 8.07658 6.35244L7.35819 5.22919ZM8.99996 4.66675C8.99996 4.29856 8.70148 4.00008 8.33329 4.00008C7.9651 4.00008 7.66663 4.29856 7.66663 4.66675H8.99996ZM4.99996 4.66675C4.99996 5.40692 5.40239 6.05232 5.99718 6.39745L6.66635 5.24419C6.46576 5.1278 6.33329 4.91236 6.33329 4.66675H4.99996ZM8.07658 6.35244C8.63043 5.99821 8.99996 5.37585 8.99996 4.66675H7.66663C7.66663 4.90217 7.54509 5.10965 7.35819 5.22919L8.07658 6.35244Z" fill="#8C9157" />
		<path fill-rule="evenodd" clip-rule="evenodd" d="M7.00004 5.33325C7.36823 5.33325 7.66671 4.88554 7.66671 4.33325C7.66671 3.78097 7.36823 3.33325 7.00004 3.33325C6.63185 3.33325 6.33337 3.78097 6.33337 4.33325C6.33337 4.88554 6.63185 5.33325 7.00004 5.33325Z" fill="#C59262" />
	</g>
</svg>
