<svg width="36" height="36" viewBox="0 0 36 36" fill="none" xmlns="http://www.w3.org/2000/svg">
	<path d="M29.1083 19.2062C29.1132 18.321 28.3982 17.3094 26.9294 16.1081C26.1804 15.5002 25.4752 14.9214 25.0035 14.1043C24.6436 13.4769 24.4587 12.7717 24.3031 12.1054C24.021 10.8895 23.5882 9.97517 22.951 9.22132C22.3674 8.53556 21.8811 8.20483 21.4725 8.20483C21.3363 8.20483 21.2099 8.24374 21.098 8.3167C20.3977 8.7836 20.85 10.2183 21.0397 10.8312L21.0591 10.8847C21.2537 11.5023 21.5601 12.1054 21.8713 12.689C21.8422 12.6696 21.813 12.6453 21.7887 12.6258C21.0737 12.0714 20.3344 11.5023 19.5466 11.0257C19.5076 11.0014 19.4639 10.9722 19.4152 10.943C19.0894 10.7387 18.5447 10.3934 18.1556 10.3934C18.0097 10.3934 17.8978 10.4421 17.8151 10.5345C17.6935 10.6755 17.6595 10.9138 17.713 11.2591C17.8103 11.8768 18.1896 12.3875 18.5544 12.8787C18.603 12.9468 18.6565 13.0149 18.7052 13.083C18.8802 13.3213 19.3812 13.8174 19.7508 14.1821C19.7995 14.2308 19.8481 14.2745 19.887 14.3183C19.5709 14.2454 19.2693 14.1724 18.9775 14.0995C18.0291 13.866 17.1342 13.6423 16.0156 13.618C15.7433 13.6131 15.5001 13.6082 15.2812 13.6082C14.007 13.6082 12.5139 13.7006 11.1083 14.3718C10.1842 14.8144 9.15801 15.7822 8.95374 16.9495C8.77379 17.9368 9.0656 19.0943 9.77082 20.2421C9.72218 20.2227 9.66868 20.2081 9.62005 20.1935C9.56169 20.174 9.50819 20.1594 9.47414 20.1449C9.25042 20.0573 8.91483 19.9357 8.55979 19.9163C8.53061 19.9163 8.5063 19.9163 8.47711 19.9163C7.86917 19.9163 7.45577 20.3248 7.412 20.9571V20.9911C7.412 20.996 7.412 21.0057 7.412 21.0106C7.39741 21.5796 7.64058 22.1438 8.11721 22.6447C8.8127 23.3742 9.95077 23.8995 10.8894 23.919C11.9691 23.9433 13.0489 23.9627 14.1286 23.9871L15.2861 24.0114C16.3609 24.0357 17.4406 24.0551 18.5155 24.0795L18.8851 24.0892C19.0553 24.0892 19.1477 23.9773 19.1672 23.8703C19.1867 23.739 19.104 23.6126 18.9629 23.5688C17.9562 23.2575 17.3336 22.8247 17.0564 22.2508C16.9932 22.1194 17.3045 21.92 17.4747 21.813C17.533 21.7741 17.5817 21.745 17.6206 21.7158C17.8832 21.5164 18.2383 21.2051 18.3307 20.7479C18.5787 19.4883 16.9689 18.6371 15.9816 18.3356C15.3493 18.1411 14.6684 18.0778 13.9778 18.1605C13.3358 18.2383 12.5674 18.3697 12.3534 18.715C12.329 18.7539 12.2512 18.8803 12.3047 18.9825C12.3388 19.0457 12.4069 19.0749 12.509 19.0749C12.543 19.0749 12.5771 19.07 12.6111 19.0651C12.6111 19.0846 12.6111 19.0992 12.6209 19.1186C12.6403 19.1575 12.6938 19.177 12.7327 19.1575C13.2239 18.9338 13.8027 18.8122 14.4106 18.8122C14.79 18.8122 15.1645 18.856 15.5293 18.9436C17.0613 19.318 17.4212 20.0476 17.4941 20.4464C17.5817 20.8938 17.2315 21.1322 16.857 21.3802C16.536 21.5991 16.2004 21.8276 16.1469 22.2021C16.1469 22.207 16.1469 22.2119 16.1469 22.2167C16.1712 22.7323 16.716 23.1457 17.1537 23.4715C17.1683 23.4861 17.1877 23.4958 17.2023 23.5056C16.7646 23.4958 16.3463 23.4861 15.9329 23.4715C14.9067 23.4472 13.934 23.418 12.8203 23.4034C12.6452 23.3986 12.4701 23.3986 12.2999 23.3937C11.7941 23.3888 11.2688 23.3791 10.7533 23.3597C9.74164 23.3207 8.55493 22.5231 8.11235 21.5796C7.99562 21.3316 7.85458 20.7382 8.1853 20.5777C8.25826 20.5437 8.34094 20.5242 8.43821 20.5242C8.69597 20.5242 8.99751 20.6458 9.21637 20.7382C9.74164 20.9571 10.2037 21.2051 10.6317 21.4969C10.6511 21.5066 10.6657 21.5212 10.6852 21.5407C10.763 21.6039 10.8651 21.6866 10.9818 21.6769C11.0791 21.672 11.1618 21.6136 11.2007 21.5261C11.2445 21.4386 11.2347 21.3364 11.1812 21.2586C11.1569 21.2197 11.1277 21.1808 11.1034 21.1419C10.2961 19.926 9.51791 18.6274 9.66382 17.2608C9.78541 16.1178 10.6754 15.2764 12.3825 14.6831C13.3893 14.3329 14.4058 14.1627 15.4904 14.1627C16.6236 14.1627 17.8394 14.3524 19.2061 14.7414C20.028 14.9749 20.8549 15.257 21.5795 15.5002C21.5941 15.505 21.6136 15.5148 21.6379 15.5245C21.7352 15.5634 21.8859 15.6169 22.0124 15.6169C22.0951 15.6169 22.1583 15.5926 22.2021 15.5488C22.2458 15.5002 22.2701 15.4321 22.2653 15.3494C22.2556 15.184 22.0707 15.0819 21.9346 15.0089C21.9054 14.9944 21.8762 14.9798 21.8567 14.9652C20.3782 14.0168 19.2207 12.8544 18.5058 11.5996L18.5009 11.585C18.2723 11.1667 18.2772 11.0695 18.2918 11.05C18.2918 11.05 18.3404 11.0257 18.5203 11.1035C18.9046 11.2494 19.2742 11.4975 19.6244 11.7406C19.6876 11.7844 19.7557 11.8282 19.8189 11.872C20.3588 12.2319 20.9229 12.6355 21.6038 13.1511C21.8859 13.3651 22.1534 13.5742 22.4112 13.7736C22.4209 13.7785 22.4306 13.7931 22.4452 13.8028C22.5814 13.9195 22.7419 14.046 22.8781 14.046C22.9364 14.046 23.0726 14.0216 23.0824 13.7882C23.0921 13.6034 22.9219 13.3894 22.776 13.1948C22.7176 13.117 22.6592 13.0441 22.63 12.9906C22.523 12.796 22.4355 12.6015 22.348 12.3972C22.3139 12.3243 22.2847 12.2513 22.2507 12.1735C22.0172 11.6531 21.813 11.0938 21.6476 10.5199C21.6282 10.4567 21.6038 10.3788 21.5698 10.2864C21.4287 9.86817 21.1321 8.99759 21.419 8.77873C21.4482 8.75442 21.4871 8.74469 21.5309 8.74469C21.847 8.74469 22.4063 9.35263 22.7857 9.8779C23.1553 10.3837 23.4228 10.9236 23.5833 11.4829C23.6757 11.8087 23.7535 12.1492 23.8265 12.4799C23.987 13.2094 24.1572 13.9584 24.5366 14.6247C25.0132 15.4369 25.6454 15.9817 26.3166 16.5604C26.4966 16.716 26.6814 16.8717 26.8662 17.037C26.91 17.0759 26.9537 17.1149 26.9975 17.1489C27.158 17.2899 27.3234 17.431 27.4304 17.5963C27.5033 17.7033 27.5909 17.8006 27.6784 17.893C27.7562 17.9806 27.834 18.0632 27.8973 18.1557C28.1064 18.4475 28.3399 18.8901 28.2572 19.3424C28.0383 19.9552 27.372 20.3151 26.268 20.4075C25.4752 20.4707 24.3712 20.6312 23.914 21.2489C23.7146 21.5164 23.6563 21.8471 23.7389 22.2264C23.7487 22.2605 23.773 22.2848 23.807 22.2945C23.8216 22.3529 23.8411 22.4064 23.8654 22.4648C23.88 22.4988 23.914 22.5183 23.9481 22.5183C23.9675 22.5183 23.9821 22.5134 23.9967 22.5037C24.1572 22.7809 24.2302 22.8976 24.2642 22.9317C24.2885 22.956 24.3226 22.9657 24.3566 22.956C24.663 23.2721 25.091 23.5445 25.6844 23.8071C25.7281 23.8266 25.7768 23.8363 25.8205 23.8363C25.9713 23.8363 26.1075 23.7341 26.1318 23.6077C26.1464 23.5202 26.1123 23.4083 25.9616 23.3499C25.7914 23.2818 25.6114 23.1894 25.4169 23.0776C25.4071 23.063 25.4023 23.0435 25.3974 23.0241C25.3828 22.9754 25.3634 22.9219 25.3147 22.8684C25.3099 22.8636 25.305 22.8587 25.3001 22.8538C24.8576 22.5426 24.6387 22.2605 24.6436 22.0125C24.6776 21.7304 25.0229 21.5747 25.3099 21.5261C25.5774 21.4677 25.8594 21.4531 26.1318 21.4337C26.3118 21.424 26.5014 21.4094 26.6814 21.3899L26.7154 21.3851C27.6979 21.2683 27.8535 21.1176 27.8778 20.9911C27.8827 20.9717 27.8778 20.9571 27.8681 20.9376C27.9119 20.9182 27.9605 20.8987 27.9897 20.8841C28.0626 20.8549 28.1259 20.8257 28.1648 20.8014C28.4906 20.5874 28.5198 20.5583 28.5003 20.4902C28.8943 20.1157 29.1083 19.6828 29.1083 19.2062Z" fill="#142933" />
	<path d="M5.82654 7.062L6.15726 6.75073L8.93921 7.23222L8.94407 7.22736L7.46069 5.64184L7.91786 5.20898L10.1697 7.61158L9.83897 7.92285L7.05702 7.44135L7.05215 7.44622L8.55013 9.04633L8.09295 9.47918L5.82654 7.062Z" fill="#142933" />
	<path d="M11.799 6.68252C10.9333 7.15428 10.0384 6.78465 9.5812 5.95298C9.12403 5.11159 9.32343 4.1632 10.1697 3.70116C11.0159 3.23912 11.9254 3.58443 12.3826 4.42583C12.8398 5.25263 12.6647 6.20589 11.799 6.68252ZM10.4712 4.24101C9.95083 4.52796 9.89247 5.15536 10.1454 5.6174C10.3837 6.05512 10.8944 6.47338 11.5072 6.1378C12.12 5.80221 12.0422 5.14563 11.8038 4.71278C11.5509 4.25074 10.9916 3.95406 10.4712 4.24101Z" fill="#142933" />
	<path d="M14.508 5.48142L13.9049 5.66624L13.117 3.10315L12.4994 3.29769L12.3389 2.77242L14.187 2.20825L14.3475 2.73352L13.7201 2.91833L14.508 5.48142Z" fill="#142933" />
	<path d="M17.7811 5.00469L17.1537 5.02901L17.0419 2.34919L16.3902 2.37837L16.3658 1.82879L18.2967 1.75098L18.321 2.30056L17.6693 2.32488L17.7811 5.00469Z" fill="#142933" />
	<path d="M19.6585 2.41235L19.5758 3.11756L20.5728 3.23429L20.5096 3.77901L19.5126 3.66228L19.4056 4.53286L20.4367 4.65445L20.3734 5.19916L18.715 4.99976L19.0943 1.79468L20.7528 1.99408L20.6896 2.5388L19.6585 2.41235Z" fill="#142933" />
	<path d="M23.0045 3.30742C22.9365 3.11774 22.8197 2.9767 22.6155 2.91347C22.4209 2.85511 22.1923 2.94752 22.134 3.15179C21.9783 3.67219 23.272 3.81809 22.9608 4.85889C22.776 5.47656 22.2604 5.80242 21.6282 5.61761C21.2002 5.49115 20.9619 5.15071 20.8549 4.73244L21.3558 4.46494C21.3655 4.72758 21.5212 5.0048 21.7789 5.08262C22.027 5.15557 22.241 4.99021 22.3091 4.75189C22.4063 4.4309 22.134 4.25581 21.92 4.08559C21.5698 3.8035 21.3412 3.51655 21.4823 3.03506C21.633 2.52439 22.1388 2.22285 22.6592 2.37362C22.9365 2.4563 23.2769 2.70434 23.4034 2.97183L23.0045 3.30742Z" fill="#142933" />
	<path d="M23.9627 6.45406L23.3986 6.17684L24.5707 3.76452L23.987 3.48243L24.2254 2.99121L25.9616 3.83747L25.7185 4.32869L25.1348 4.0466L23.9627 6.45406Z" fill="#142933" />
	<path d="M26.842 5.05806L26.4334 5.64169L27.2554 6.21559L26.9392 6.66303L26.1173 6.08913L25.6163 6.80408L26.4675 7.40229L26.1513 7.84974L24.7847 6.89162L26.6328 4.24585L27.9995 5.20397L27.6833 5.65142L26.842 5.05806Z" fill="#142933" />
	<path d="M28.836 5.87524L29.4634 6.5221C30.1152 7.19327 30.0471 8.12707 29.3905 8.76906C28.7388 9.40132 27.7904 9.4305 27.1484 8.76906L26.521 8.1222L28.836 5.87524ZM27.3527 8.19516L27.4256 8.26811C27.9655 8.82256 28.481 8.73988 28.9382 8.29729C29.444 7.80607 29.4537 7.2954 28.9528 6.78473L28.8798 6.71177L27.3527 8.19516Z" fill="#142933" />
	<path d="M6.22533 29.4634C5.53957 28.7582 5.65143 27.7952 6.33233 27.1289C7.01809 26.4578 7.9908 26.3994 8.66197 27.09C9.33314 27.7806 9.25046 28.7485 8.5647 29.4148C7.87894 30.0811 6.91109 30.1686 6.22533 29.4634ZM8.21452 27.5229C7.80112 27.0949 7.17859 27.2116 6.80409 27.5764C6.44905 27.9217 6.18156 28.5296 6.67278 29.0257C7.15913 29.5267 7.77194 29.2737 8.12698 28.9284C8.50147 28.5685 8.63279 27.9509 8.21452 27.5229Z" fill="#142933" />
	<path d="M9.91677 28.3157L10.301 28.554L10.549 31.37L10.5539 31.3748L11.7017 29.5316L12.2367 29.8623L10.4955 32.6588L10.1113 32.4205L9.86327 29.6045L9.85841 29.5996L8.70088 31.4624L8.16589 31.1317L9.91677 28.3157Z" fill="#142933" />
	<path d="M13.8028 33.1015L13.3845 33.6997L12.7377 33.5441L14.7366 30.6162L15.2132 30.7329L15.6266 34.2396L14.9749 34.0839L14.8922 33.3641L13.8028 33.1015ZM14.7269 31.5889H14.7171L14.0946 32.6443L14.8387 32.8243L14.7269 31.5889Z" fill="#142933" />
	<path d="M16.468 31.0198L16.9203 31.0246L18.5934 33.3008H18.6031L18.6274 31.1268L19.2548 31.1316L19.2208 34.4243L18.7685 34.4194L17.0954 32.1481H17.0857L17.0614 34.3416L16.434 34.3367L16.468 31.0198Z" fill="#142933" />
	<path d="M20.782 34.1131L20.1594 34.2104L19.6682 31.0199L20.2907 30.9226L20.782 34.1131Z" fill="#142933" />
	<path d="M23.3888 31.3166L23.3791 31.3215L23.3402 33.4955L23.1311 33.5636L21.8082 31.8516L21.7985 31.8565L22.1681 33.8457L21.5699 34.0499L21.0251 30.7378L21.4483 30.5968L22.883 32.3574L22.9219 30.0959L23.3499 29.95L24.8674 32.9362L24.2691 33.1404L23.3888 31.3166Z" fill="#142933" />
	<path d="M25.8692 31.5549L26.0054 32.2747L25.4412 32.6297L24.7457 29.1523L25.1591 28.8945L27.9557 31.0491L27.3866 31.4041L26.8127 30.9615L25.8692 31.5549ZM25.4315 29.8381L25.4266 29.8429L25.7476 31.0248L26.3945 30.6162L25.4315 29.8381Z" fill="#142933" />
	<path d="M28.5782 29.7358L29.2396 29.1375L29.6044 29.5461L28.4761 30.5626L26.3167 28.1648L26.7836 27.7417L28.5782 29.7358Z" fill="#142933" />
	<path d="M29.0791 26.2973C28.8797 26.2876 28.6997 26.3411 28.5684 26.5016C28.442 26.6572 28.4371 26.9053 28.6025 27.0366C29.0207 27.3819 29.6579 26.2487 30.4944 26.9344C30.9953 27.343 31.0926 27.9461 30.6743 28.4567C30.3923 28.802 29.9886 28.8896 29.5557 28.8264L29.5071 28.2573C29.7551 28.3497 30.0713 28.3157 30.2415 28.1066C30.402 27.9071 30.3339 27.6445 30.1442 27.4889C29.8864 27.2749 29.619 27.4548 29.3806 27.591C28.9867 27.805 28.6317 27.9071 28.2426 27.5862C27.8292 27.2457 27.7465 26.6669 28.0918 26.2438C28.2718 26.0201 28.6365 25.8012 28.9283 25.7915L29.0791 26.2973Z" fill="#142933" />
	<path d="M18 36C13.1899 36 8.67171 34.1275 5.27209 30.7279C1.87247 27.3283 0 22.8101 0 18C0 13.1899 1.87247 8.67171 5.27209 5.27209C8.67171 1.87247 13.1899 0 18 0C22.8101 0 27.3283 1.87247 30.7279 5.27209C34.1275 8.67171 36 13.1899 36 18C36 22.8101 34.1275 27.3283 30.7279 30.7279C27.3283 34.1275 22.8101 36 18 36ZM18 1.10403C13.4866 1.10403 9.24075 2.85977 6.05026 6.05512C2.85977 9.24561 1.10403 13.4866 1.10403 18C1.10403 22.5134 2.85977 26.7593 6.05512 29.9497C9.24561 33.1402 13.4915 34.9008 18.0049 34.9008C22.5182 34.9008 26.7641 33.1451 29.9546 29.9497C33.1451 26.7593 34.9057 22.5134 34.9057 18C34.9057 13.4866 33.15 9.24075 29.9546 6.05026C26.7593 2.85977 22.5134 1.10403 18 1.10403Z" fill="#142933" />
	<path d="M18 30.4313C14.6782 30.4313 11.5558 29.1376 9.21152 26.7885C6.86243 24.4394 5.56873 21.317 5.56873 18.0001C5.56873 14.6831 6.86243 11.5559 9.21152 9.21165C11.5606 6.86255 14.683 5.56885 18 5.56885C21.3169 5.56885 24.4442 6.86255 26.7884 9.21165C29.1375 11.5607 30.4312 14.6831 30.4312 18.0001C30.4312 21.317 29.1375 24.4443 26.7884 26.7885C24.4442 29.1376 21.3218 30.4313 18 30.4313ZM18 6.67287C11.7552 6.67287 6.67275 11.7553 6.67275 18.0001C6.67275 24.2449 11.7552 29.3273 18 29.3273C24.2448 29.3273 29.3272 24.2449 29.3272 18.0001C29.3272 11.7553 24.2448 6.67287 18 6.67287Z" fill="#142933" />
</svg>
