<svg width="16" height="16" viewBox="0 0 16 16" fill="none" xmlns="http://www.w3.org/2000/svg">
<g clip-path="url(#clip0_1_1326)">
<path fill-rule="evenodd" clip-rule="evenodd" d="M10.3742 2.668C9.22515 2.15603 7.94142 2.0292 6.71444 2.30642C5.48745 2.58364 4.38295 3.25006 3.56566 4.20629C2.74836 5.16253 2.26207 6.35733 2.1793 7.61252C2.09654 8.86771 2.42173 10.116 3.10639 11.1713C3.79104 12.2266 4.79847 13.0322 5.97843 13.4682C7.15839 13.9041 8.44766 13.9469 9.65395 13.5903C10.8602 13.2336 11.9189 12.4966 12.6721 11.4891C13.4253 10.4816 13.8326 9.25758 13.8333 7.99967V7.40374C13.8333 7.04578 14.1235 6.75559 14.4815 6.75559C14.8394 6.75559 15.1296 7.04578 15.1296 7.40374V8.00004C15.1287 9.53749 14.6309 11.0338 13.7103 12.2652C12.7898 13.4966 11.4959 14.3975 10.0215 14.8334C8.54714 15.2693 6.97137 15.2169 5.5292 14.6841C4.08702 14.1513 2.85572 13.1666 2.01892 11.8768C1.18212 10.5871 0.784657 9.06134 0.885816 7.52723C0.986975 5.99311 1.58133 4.53279 2.58025 3.36406C3.57916 2.19534 4.92911 1.38082 6.42876 1.042C7.9284 0.703169 9.4974 0.858187 10.9018 1.48393C11.2287 1.62962 11.3757 2.01279 11.23 2.33976C11.0843 2.66673 10.7011 2.81369 10.3742 2.668Z" fill="#142933"/>
<path fill-rule="evenodd" clip-rule="evenodd" d="M14.9395 2.35636C15.1927 2.60935 15.193 3.01973 14.94 3.27298L8.45848 9.76094C8.33695 9.88259 8.17206 9.95096 8.0001 9.95101C7.82815 9.95105 7.66322 9.88276 7.54163 9.76117L5.59719 7.81672C5.34407 7.56361 5.34407 7.15322 5.59719 6.9001C5.8503 6.64699 6.26069 6.64699 6.51381 6.9001L7.99971 8.38601L14.0229 2.35682C14.2759 2.10357 14.6863 2.10337 14.9395 2.35636Z" fill="#142933"/>
</g>
<defs>
<clipPath id="clip0_1_1326">
<rect width="15.5556" height="15.5556" fill="white" transform="translate(0.222168 0.222168)"/>
</clipPath>
</defs>
</svg>
