<svg width="36" height="36" viewBox="0 0 36 36" fill="none" xmlns="http://www.w3.org/2000/svg">
	<path fill-rule="evenodd" clip-rule="evenodd" d="M0 18C0 8.05984 8.05984 0 18 0C27.9457 0 36 8.05994 36 18C36 27.9402 27.9402 36 18 36C8.05984 36 0 27.9402 0 18ZM18 1C8.61213 1 1 8.61213 1 18C1 27.3879 8.61213 35 18 35C27.3879 35 35 27.3879 35 18C35 8.61202 27.3932 1 18 1ZM18 7.73916C15.257 7.73916 12.6829 8.80505 10.7412 10.7414C8.7996 12.6831 7.73371 15.257 7.73371 18C7.73371 20.7431 8.79964 23.317 10.7413 25.2587C12.683 27.2004 15.2569 28.2663 18 28.2663C20.7431 28.2663 23.317 27.2004 25.2587 25.2587C27.2004 23.317 28.2663 20.7431 28.2663 18C28.2663 15.2568 27.2003 12.6831 25.2592 10.7472L25.2587 10.7468C23.317 8.8051 20.7431 7.73916 18 7.73916ZM10.0347 10.0337C12.1636 7.91045 14.9917 6.73916 18 6.73916C21.0084 6.73916 23.8367 7.91052 25.9658 10.0396C28.0952 12.1636 29.2663 14.9919 29.2663 18C29.2663 21.0084 28.0949 23.8367 25.9658 25.9658C23.8367 28.0949 21.0084 29.2663 18 29.2663C14.9916 29.2663 12.1633 28.0949 10.0342 25.9658C7.90506 23.8367 6.73371 21.0084 6.73371 18C6.73371 14.9916 7.90506 12.1633 10.0342 10.0342L10.0347 10.0337Z" fill="#142933" />
	<path d="M4.12332 19.9972C4.1015 19.959 3.65404 19.075 3.93233 17.7981L4.37979 17.8963C4.13969 19.015 4.52713 19.7844 4.53258 19.7898L4.12332 19.9972Z" fill="#142933" />
	<path d="M3.63768 19.4242C2.6118 19.4242 2.28985 18.4201 2.28985 18.4092L2.22437 18.2019L2.42627 18.1255C2.83553 17.9727 3.20659 17.9727 3.534 18.1364C4.08514 18.4092 4.27613 19.0368 4.28704 19.064L4.35252 19.2878L4.12334 19.3478C3.94872 19.4024 3.78501 19.4242 3.63768 19.4242ZM2.83007 18.4911C2.96104 18.7094 3.23388 18.9986 3.74136 18.9604C3.65951 18.8185 3.52854 18.6439 3.3321 18.5511C3.18476 18.4802 3.0156 18.4583 2.83007 18.4911Z" fill="#142933" />
	<path d="M4.03055 18.4528L3.89413 18.2618C3.02104 17.0177 4.1506 16.1446 4.16152 16.1336L4.33068 16.0027L4.47255 16.1664C4.76722 16.5102 4.89819 16.8758 4.85453 17.2468C4.78359 17.8798 4.23791 18.2945 4.21608 18.3109L4.03055 18.4528ZM4.27065 16.663C4.10149 16.8703 3.89413 17.2523 4.13423 17.7598C4.24883 17.6234 4.37979 17.4269 4.40162 17.1923C4.42344 17.0177 4.37433 16.843 4.27065 16.663Z" fill="#142933" />
	<path d="M4.62536 19.4241C4.47803 19.4241 4.31433 19.4023 4.13971 19.3532L3.91052 19.2931L3.976 19.0694C3.98146 19.0421 4.17791 18.4146 4.72904 18.1418C5.05645 17.9781 5.42752 17.9781 5.83678 18.1308L6.03868 18.2072L5.9732 18.4146C5.9732 18.4255 5.65125 19.4241 4.62536 19.4241ZM4.52714 18.9603C5.03463 18.9985 5.30747 18.7093 5.43843 18.491C5.2529 18.4583 5.08374 18.4801 4.9364 18.551C4.73996 18.6438 4.60899 18.8184 4.52714 18.9603Z" fill="#142933" />
	<path d="M32.024 16.0027C32.0458 16.0409 32.4933 16.9249 32.215 18.2018L31.7675 18.1036C32.0076 16.9849 31.6202 16.2155 31.6147 16.21L32.024 16.0027Z" fill="#142933" />
	<path d="M32.5041 16.5757C33.53 16.5757 33.852 17.5797 33.852 17.5907L33.9175 17.798L33.7156 17.8744C33.3063 18.0272 32.9352 18.0272 32.6078 17.8635C32.0567 17.5907 31.8657 16.9631 31.8548 16.9358L31.7893 16.7121L32.0185 16.6521C32.1986 16.5975 32.3568 16.5757 32.5041 16.5757ZM33.3172 17.5088C33.1863 17.2905 32.9134 17.0013 32.4059 17.0395C32.4878 17.1814 32.6187 17.356 32.8152 17.4488C32.9625 17.5252 33.1317 17.5415 33.3172 17.5088Z" fill="#142933" />
	<path d="M32.1169 17.5525L32.2533 17.7435C33.1264 18.9876 31.9968 19.8607 31.9859 19.8716L31.8167 20.0026L31.6749 19.8389C31.3802 19.4951 31.2492 19.1295 31.2929 18.7584C31.3638 18.1255 31.9095 17.7107 31.9313 17.6944L32.1169 17.5525ZM31.8768 19.3369C32.0459 19.1295 32.2533 18.7475 32.0132 18.24C31.8986 18.3765 31.7676 18.5729 31.7458 18.8076C31.724 18.9822 31.7676 19.1623 31.8768 19.3369Z" fill="#142933" />
	<path d="M31.522 16.5757C31.6693 16.5757 31.833 16.5975 32.0076 16.6466L32.2368 16.7066L32.1713 16.9304C32.1659 16.9577 31.9694 17.5852 31.4183 17.858C31.0909 18.0217 30.7198 18.0217 30.3105 17.8689L30.1086 17.7926L30.1741 17.5852C30.1741 17.5797 30.4961 16.5757 31.522 16.5757ZM31.6202 17.0395C31.1127 17.0013 30.8399 17.2905 30.7089 17.5088C30.8944 17.5415 31.0636 17.5197 31.2109 17.4488C31.4019 17.356 31.5383 17.1868 31.6202 17.0395Z" fill="#142933" />
	<path d="M5.02366 11.3919L4.94727 10.6007L5.1328 10.2842L7.17365 11.4901L6.91717 11.9267L5.4984 11.0918L5.52023 11.381L5.02366 11.3919Z" fill="#142933" />
	<path d="M6.03871 9.46562C5.95686 9.22552 6.00597 8.99633 6.17513 8.78897C6.34429 8.58162 6.55711 8.48885 6.80812 8.51613C7.05913 8.54342 7.33743 8.67438 7.6321 8.90902C8.22143 9.38377 8.40696 9.88579 8.06864 10.3005C7.73032 10.7207 7.19555 10.6552 6.60622 10.1859C6.31155 9.94582 6.12056 9.70572 6.03871 9.46562ZM7.69758 10.0004C7.81763 9.8476 7.71941 9.66752 7.29378 9.32374C6.86814 8.97996 6.6717 8.91994 6.54619 9.07819C6.42614 9.23098 6.53528 9.42197 6.94454 9.75483C7.32652 10.0713 7.57753 10.1532 7.69758 10.0004Z" fill="#142933" />
	<path d="M7.63756 7.63744C7.59936 7.38642 7.68121 7.16815 7.87765 6.98808C8.07956 6.808 8.30329 6.75343 8.54884 6.81891C8.7944 6.8844 9.04541 7.05901 9.30188 7.34277C9.80937 7.91028 9.90759 8.42867 9.50379 8.78882C9.09998 9.14897 8.58158 9.00164 8.07956 8.43413C7.82309 8.15583 7.67575 7.88845 7.63756 7.63744ZM9.18183 8.43959C9.32371 8.30862 9.25277 8.11764 8.89262 7.70838C8.52702 7.30457 8.34148 7.21181 8.19415 7.34277C8.05227 7.47373 8.12321 7.68109 8.4779 8.07944C8.80531 8.44504 9.04541 8.56509 9.18183 8.43959Z" fill="#142933" />
	<path d="M9.51466 6.37149C9.42189 6.20233 9.40552 6.03863 9.46555 5.87492C9.52557 5.71122 9.64562 5.5748 9.83115 5.47112C10.0112 5.36744 10.1913 5.3347 10.3659 5.36744C10.5351 5.40018 10.6715 5.4984 10.7643 5.66756C10.857 5.83672 10.8734 6.00043 10.8188 6.16959C10.7588 6.33329 10.6388 6.46971 10.4532 6.57339C10.2732 6.67707 10.0931 6.70981 9.91846 6.67707C9.74385 6.63888 9.60742 6.54065 9.51466 6.37149ZM10.2513 6.2187C10.3823 6.14776 10.4205 6.02771 10.3496 5.90221C10.2841 5.78216 10.1586 5.75487 10.0276 5.82581C9.90209 5.89675 9.8639 6.02226 9.92938 6.13685C10.0003 6.26236 10.1313 6.28418 10.2513 6.2187ZM10.7588 7.53379L11.1135 4.74536L11.4682 4.78902L11.1135 7.56108L10.7588 7.53379ZM11.4627 6.62796C11.37 6.4588 11.3536 6.2951 11.4136 6.13139C11.4737 5.96769 11.5937 5.83127 11.7792 5.72759C11.9593 5.62391 12.1394 5.59117 12.314 5.62391C12.4832 5.65665 12.6196 5.75487 12.7124 5.92403C12.8051 6.09319 12.8215 6.2569 12.7669 6.42606C12.7069 6.58976 12.5868 6.72618 12.4013 6.82986C12.2212 6.93354 12.0412 6.96628 11.8665 6.93354C11.6919 6.89535 11.561 6.79712 11.4627 6.62796ZM12.1994 6.47517C12.3304 6.40423 12.3686 6.28418 12.2976 6.15868C12.2322 6.03863 12.1066 6.01134 11.9757 6.08228C11.8502 6.15322 11.812 6.27873 11.8775 6.39332C11.9484 6.52428 12.0794 6.54611 12.1994 6.47517Z" fill="#142933" />
	<path d="M16.5484 5.57493L16.1228 5.65678L14.7477 4.47266L15.0151 5.8696L14.5185 5.96782L14.071 3.63776L14.4967 3.55591L15.8718 4.7455L15.6044 3.3431L16.101 3.24487L16.5484 5.57493Z" fill="#142933" />
	<path d="M17.0723 5.50943L18.12 3.16846L18.6056 3.17937L19.5278 5.57491L18.9494 5.55854L18.7639 5.05651L17.8253 5.02923L17.6179 5.52034L17.0723 5.50943ZM18.3273 3.86693L18.0436 4.53266L18.5729 4.54903L18.3273 3.86693Z" fill="#142933" />
	<path d="M19.9972 3.7849L20.1009 3.28833L22.0217 3.69213L21.918 4.1887L21.225 4.04683L20.843 5.8694L20.3137 5.76027L20.6957 3.93769L19.9972 3.7849Z" fill="#142933" />
	<path d="M24.8264 4.78904L24.2753 6.06593C24.1389 6.38243 23.9533 6.57888 23.7187 6.66073C23.484 6.74258 23.2385 6.73167 22.982 6.62253C22.6928 6.49702 22.4964 6.31695 22.3981 6.07685C22.2999 5.83675 22.3108 5.56391 22.4472 5.25287L22.9875 3.9978L23.484 4.21062L22.9875 5.36201C22.8183 5.76035 22.8783 6.02228 23.1839 6.15324C23.4677 6.27875 23.6587 6.12596 23.8224 5.7549L24.3298 4.57622L24.8264 4.78904Z" fill="#142933" />
	<path d="M25.0229 7.68107L24.5809 7.37003L25.9451 5.43286C25.9888 5.46015 26.1034 5.542 26.2944 5.67842C26.4854 5.80938 26.5945 5.88578 26.6054 5.89669C27.1074 6.25138 27.1565 6.63882 26.8837 7.02079C26.6982 7.28272 26.4581 7.39731 26.1634 7.3482L26.1907 8.5105L25.6559 8.13398L25.6614 7.12447L25.4977 7.00988L25.0229 7.68107ZM26.0979 6.15862L25.7978 6.58971L25.9561 6.7043C26.158 6.84618 26.3107 6.84072 26.4144 6.69339C26.5126 6.55151 26.4744 6.42054 26.2944 6.29504C26.2835 6.28412 26.218 6.24593 26.0979 6.15862Z" fill="#142933" />
	<path d="M26.3762 8.65241L28.7772 7.74658L29.1101 8.10127L28.0569 10.4422L27.6586 10.0221L27.8878 9.53642L27.2439 8.85432L26.7473 9.05076L26.3762 8.65241ZM28.428 8.39049L27.7568 8.65241L28.1224 9.03985L28.428 8.39049Z" fill="#142933" />
	<path d="M28.3407 10.906L30.3379 9.62915L30.6271 10.0875L29.061 11.0861L29.5794 11.8992L29.1483 12.172L28.3407 10.906Z" fill="#142933" />
	<path d="M6.78082 24.2534L7.50657 24.5808L7.68665 24.8973L5.62943 26.076L5.37842 25.634L6.8081 24.81L6.54618 24.6845L6.78082 24.2534Z" fill="#142933" />
	<path d="M7.90484 25.7651C8.15586 25.7433 8.37413 25.836 8.53783 26.0434C8.70154 26.2507 8.74519 26.4799 8.66334 26.72C8.58149 26.9601 8.3905 27.2002 8.09583 27.4403C7.50104 27.9096 6.97719 27.9805 6.63886 27.5549C6.30054 27.1293 6.48607 26.6218 7.07541 26.1525C7.37553 25.9233 7.64837 25.7869 7.90484 25.7651ZM7.00993 27.2657C7.12998 27.4185 7.33188 27.3585 7.75751 27.0201C8.18314 26.6818 8.28682 26.5018 8.16131 26.3435C8.04126 26.1907 7.82845 26.2562 7.40827 26.5836C7.0263 26.8892 6.89533 27.1129 7.00993 27.2657Z" fill="#142933" />
	<path d="M9.24725 27.3476C9.49281 27.2821 9.72199 27.3421 9.91844 27.5168C10.1149 27.6968 10.1967 27.9096 10.1585 28.1661C10.1203 28.4171 9.97301 28.6845 9.71654 28.9683C9.20905 29.5303 8.70157 29.6886 8.30322 29.3284C7.89942 28.9683 7.99218 28.4335 8.49967 27.8715C8.75614 27.5877 9.00169 27.4131 9.24725 27.3476ZM8.61972 28.9737C8.76159 29.1047 8.95258 29.0119 9.31273 28.6081C9.67834 28.2043 9.74928 28.0079 9.60194 27.8715C9.46007 27.7405 9.25816 27.8387 8.90347 28.2371C8.57606 28.5972 8.47784 28.8482 8.61972 28.9737Z" fill="#142933" />
	<path d="M10.1094 30.5288L12.6795 29.3937L12.8214 29.7211L10.2676 30.8453L10.1094 30.5288ZM10.4641 28.8644C10.5568 28.6953 10.6933 28.597 10.8624 28.5643C11.0316 28.5261 11.2117 28.5643 11.3972 28.668C11.5827 28.7717 11.7028 28.9081 11.7628 29.0718C11.8228 29.2355 11.8064 29.3992 11.7137 29.5684C11.6209 29.7375 11.4845 29.8357 11.3099 29.8739C11.1407 29.9121 10.9606 29.8739 10.7751 29.7703C10.5896 29.6666 10.4695 29.5302 10.4095 29.3665C10.3549 29.2028 10.3713 29.0336 10.4641 28.8644ZM10.9716 29.4156C11.1025 29.4865 11.2226 29.4592 11.2935 29.3337C11.359 29.2137 11.3208 29.0936 11.1953 29.0227C11.0698 28.9517 10.9443 28.979 10.8733 29.0991C10.8078 29.2246 10.8515 29.3501 10.9716 29.4156ZM11.2498 30.6706C11.3426 30.5015 11.479 30.4033 11.6482 30.3705C11.8174 30.3323 11.9974 30.3705 12.183 30.4742C12.3685 30.5779 12.4885 30.7143 12.5486 30.878C12.6086 31.0417 12.5922 31.2054 12.4995 31.3746C12.4067 31.5437 12.2703 31.6419 12.0957 31.6801C11.9265 31.7183 11.7464 31.6801 11.5609 31.5765C11.3754 31.4728 11.2553 31.3364 11.1953 31.1727C11.1407 31.0035 11.1516 30.8343 11.2498 30.6706ZM11.7573 31.2218C11.8883 31.2927 12.0083 31.2654 12.0793 31.1399C12.1448 31.0199 12.1066 30.8998 11.9811 30.8289C11.8556 30.7579 11.73 30.7852 11.6591 30.9053C11.5882 31.0308 11.6373 31.1508 11.7573 31.2218Z" fill="#142933" />
	<path d="M16.3903 32.9516L15.9647 32.8752L15.1134 31.2764L14.8624 32.6788L14.3604 32.586L14.7805 30.2505L15.2062 30.3269L16.0574 31.9312L16.3139 30.5233L16.8159 30.6161L16.3903 32.9516Z" fill="#142933" />
	<path d="M17.3506 33.039L18.2346 30.627L18.7202 30.6052L19.8062 32.9298L19.2277 32.9571L19.0095 32.466L18.0709 32.5042L17.8963 33.0117L17.3506 33.039ZM18.4911 31.3092L18.251 31.9913L18.7803 31.9694L18.4911 31.3092Z" fill="#142933" />
	<path d="M19.8443 31.0309L19.7297 30.5343L21.6451 30.0923L21.7597 30.5889L21.0667 30.7471L21.4868 32.5642L20.9575 32.6843L20.5373 30.8672L19.8443 31.0309Z" fill="#142933" />
	<path d="M23.8988 29.1047L24.4827 30.3707C24.6246 30.6818 24.6519 30.9491 24.5536 31.1838C24.4609 31.413 24.2863 31.5876 24.0352 31.7022C23.7515 31.8331 23.4841 31.8604 23.2385 31.7731C22.993 31.6858 22.802 31.4948 22.6601 31.1892L22.0872 29.9451L22.5783 29.7159L23.1021 30.8564C23.2822 31.2493 23.5223 31.3802 23.8224 31.2383C24.1062 31.1074 24.1225 30.8673 23.9479 30.4962L23.4077 29.3285L23.8988 29.1047Z" fill="#142933" />
	<path d="M26.3708 30.2834L25.9397 30.6108L24.51 28.7173C24.5482 28.6846 24.6628 28.6027 24.8483 28.4554C25.0339 28.3135 25.1375 28.2371 25.1485 28.2262C25.6396 27.8551 26.0215 27.9315 26.3053 28.3026C26.4963 28.559 26.529 28.821 26.3981 29.0884L27.5113 29.4212L26.9874 29.8141L26.027 29.4976L25.8688 29.6177L26.3708 30.2834ZM25.2521 28.7991L25.5686 29.2193L25.7269 29.0993C25.9233 28.9519 25.967 28.8046 25.8578 28.6573C25.7542 28.5209 25.6177 28.5154 25.4431 28.6518C25.4268 28.6573 25.3667 28.7064 25.2521 28.7991Z" fill="#142933" />
	<path d="M27.9969 28.9899L26.8564 26.6871L27.1729 26.3215L29.6067 27.1401L29.2247 27.5766L28.7227 27.3965L28.1061 28.1059L28.3516 28.5807L27.9969 28.9899ZM27.5331 26.9709L27.8605 27.6148L28.2097 27.2165L27.5331 26.9709Z" fill="#142933" />
	<path d="M30.1032 26.3491L28.0569 25.1595L28.3297 24.6902L29.9395 25.6288L30.4251 24.7939L30.8671 25.0503L30.1032 26.3491Z" fill="#142933" />
	<path d="M10.5405 20.6903V14.9607H13.9519V16.1873H11.8532V17.1961H13.7047V18.4227H11.8532V19.4637H14.0329V20.6903H10.5405Z" fill="#142933" />
	<path d="M19.708 20.1316C19.5351 20.3299 19.2738 20.4917 18.9321 20.6172C18.5904 20.7386 18.2285 20.7992 17.8466 20.7992C16.9581 20.7992 16.2385 20.5281 15.6836 19.986C15.1288 19.4357 14.8514 18.7195 14.8514 17.8253C14.8514 16.9634 15.1128 16.2473 15.6354 15.6889C16.158 15.1305 16.8938 14.8513 17.8385 14.8513C18.5662 14.8513 19.2256 15.0981 19.5834 15.4502L19.0044 16.4374C18.6225 16.1987 18.2285 16.0854 17.8385 16.0854C17.3722 16.0854 16.9903 16.2432 16.6887 16.5467C16.3872 16.8501 16.2385 17.279 16.2385 17.8293C16.2385 18.3391 16.4033 18.7559 16.7209 19.0877C17.0385 19.4073 17.4566 19.5732 17.9712 19.5732C18.4295 19.5732 18.8436 19.4316 19.2135 19.1524L19.708 20.1316Z" fill="#142933" />
	<path d="M20.8192 15.7051C21.3808 15.1386 22.1148 14.8513 23.0094 14.8513C23.8959 14.8513 24.6219 15.1224 25.1835 15.6646C25.7531 16.2068 26.0379 16.9311 26.0379 17.8253C26.0379 18.6871 25.7531 19.4033 25.1755 19.9617C24.6059 20.5201 23.8798 20.7992 23.0094 20.7992C22.1229 20.7992 21.3968 20.5281 20.8272 19.986C20.2656 19.4438 19.9808 18.7195 19.9808 17.8253C19.9808 16.9796 20.2576 16.2715 20.8192 15.7051ZM21.8461 19.0675C22.163 19.4033 22.5561 19.5692 23.0094 19.5692C23.5308 19.5692 23.936 19.4033 24.2208 19.0837C24.5056 18.7559 24.654 18.3351 24.654 17.8253C24.654 17.3074 24.4976 16.8906 24.1807 16.5669C23.8638 16.2473 23.4707 16.0814 23.0094 16.0814C22.528 16.0814 22.1389 16.2473 21.83 16.5669C21.5212 16.8866 21.3647 17.3074 21.3647 17.8253C21.3647 18.3189 21.5292 18.7276 21.8461 19.0675Z" fill="#142933" />
</svg>
