<svg width="50" height="50" viewBox="0 0 50 50" fill="none" xmlns="http://www.w3.org/2000/svg">
<circle cx="25" cy="25" r="25" fill="#ECECEC"/>
<path d="M32.6677 9.32617H12.1001V39.5998H32.6677V9.32617Z" stroke="#8A9499" stroke-width="0.9" stroke-miterlimit="10" stroke-linecap="round" stroke-linejoin="round"/>
<path d="M34.0543 11.0825L38.9998 11.6834L35.3716 41.749L27.3525 40.7784" stroke="#8A9499" stroke-width="0.9" stroke-miterlimit="10" stroke-linecap="round" stroke-linejoin="round"/>
<path d="M17.739 18.5008V19.8181H15.636V17.7151H16.699" stroke="#8A9499" stroke-width="0.9" stroke-miterlimit="10" stroke-linecap="round" stroke-linejoin="round"/>
<path d="M17.739 19.8179H27.3526" stroke="#8A9499" stroke-width="0.9" stroke-miterlimit="10" stroke-linecap="round" stroke-linejoin="round"/>
<path d="M17.739 23.4461V24.7634H15.636V22.6604H16.699" stroke="#8A9499" stroke-width="0.9" stroke-miterlimit="10" stroke-linecap="round" stroke-linejoin="round"/>
<path d="M17.739 24.7634H27.3526" stroke="#8A9499" stroke-width="0.9" stroke-miterlimit="10" stroke-linecap="round" stroke-linejoin="round"/>
<path d="M17.739 28.3685V29.6857H15.636V27.5828H16.699" stroke="#8A9499" stroke-width="0.9" stroke-miterlimit="10" stroke-linecap="round" stroke-linejoin="round"/>
<path d="M17.739 29.6855H27.3526" stroke="#8A9499" stroke-width="0.9" stroke-miterlimit="10" stroke-linecap="round" stroke-linejoin="round"/>
<path d="M17.739 33.2908V34.6081H15.636V32.5051H16.699" stroke="#8A9499" stroke-width="0.9" stroke-miterlimit="10" stroke-linecap="round" stroke-linejoin="round"/>
<path d="M17.739 34.6082H27.3526" stroke="#8A9499" stroke-width="0.9" stroke-miterlimit="10" stroke-linecap="round" stroke-linejoin="round"/>
<path d="M19.7193 12.4382C19.9772 12.4382 20.1935 12.4632 20.3682 12.5131C20.5429 12.5603 20.6733 12.6379 20.7592 12.7461C20.848 12.8542 20.8923 12.9998 20.8923 13.1828C20.8923 13.2965 20.8729 13.3991 20.8341 13.4906C20.7953 13.5822 20.7384 13.657 20.6636 13.7153C20.5914 13.7735 20.5013 13.8123 20.3932 13.8317V13.8525C20.5041 13.872 20.6025 13.908 20.6885 13.9607C20.7772 14.0106 20.8466 14.0841 20.8965 14.1812C20.9492 14.2754 20.9755 14.4002 20.9755 14.5555C20.9755 14.7358 20.9325 14.8897 20.8466 15.0173C20.7606 15.1448 20.6372 15.2419 20.4764 15.3084C20.3183 15.375 20.1297 15.4083 19.9106 15.4083H18.825V12.4382H19.7193ZM19.79 13.6487C20.0008 13.6487 20.145 13.6154 20.2226 13.5489C20.303 13.4823 20.3433 13.3839 20.3433 13.2535C20.3433 13.1204 20.2961 13.0248 20.2018 12.9665C20.1075 12.9083 19.9564 12.8792 19.7484 12.8792H19.3574V13.6487H19.79ZM19.3574 14.0772V14.9632H19.8399C20.0562 14.9632 20.206 14.9216 20.2892 14.8384C20.3751 14.7552 20.4181 14.6443 20.4181 14.5056C20.4181 14.4169 20.4001 14.3406 20.3641 14.2768C20.328 14.213 20.2656 14.1645 20.1769 14.1312C20.0881 14.0952 19.9675 14.0772 19.815 14.0772H19.3574Z" fill="#8A9499"/>
<path d="M22.5939 15.4083H21.346V15.1046L21.7037 14.9715V12.8792L21.346 12.7419V12.4382H22.5939V12.7419L22.2362 12.8792V14.9715L22.5939 15.1046V15.4083Z" fill="#8A9499"/>
<path d="M23.1269 15.4083V12.4382H23.6593V14.959H24.8989V15.4083H23.1269Z" fill="#8A9499"/>
<path d="M25.4139 15.4083V12.4382H25.9463V14.959H27.1859V15.4083H25.4139Z" fill="#8A9499"/>
<rect x="43" y="6" width="2" height="52" transform="rotate(45 43 6)" fill="white"/>
</svg>
