<svg width="50" height="50" viewBox="0 0 50 50" fill="none" xmlns="http://www.w3.org/2000/svg">
<circle cx="25" cy="25" r="25" fill="#ECECEC"/>
<path d="M30.6371 14.4479C30.6371 14.7954 30.6371 15.1428 30.6371 15.4903C30.5985 16.3205 30.6371 16.9961 30.6178 17.4401C30.6178 20.8185 27.8572 24.0038 25.8302 24.4672C25.2124 24.6023 24.5753 24.5637 23.9769 24.3706C20.4827 23.2896 19.4016 19.3706 19.4016 17.2857C19.4016 16.3011 19.4402 15.8185 19.4209 15.5483V14.0618H30.6371V14.4479Z" stroke="#8A9499" stroke-miterlimit="10" stroke-linecap="round" stroke-linejoin="round"/>
<path d="M28.9574 25.413C28.8609 25.1621 28.803 24.8918 28.803 24.6215C28.803 24.6022 28.803 24.6022 28.803 24.5829L28.8416 22.3242" stroke="#8A9499" stroke-miterlimit="10" stroke-linecap="round" stroke-linejoin="round"/>
<path d="M21.1198 22.3438L21.1584 24.5831C21.1584 24.8727 21.1197 25.143 21.0039 25.394" stroke="#8A9499" stroke-miterlimit="10" stroke-linecap="round" stroke-linejoin="round"/>
<path d="M19.4402 14.0618C19.112 13.6757 18.9768 13.1737 19.0348 12.6718L19.3629 9.87259C19.4788 8.81081 20.3861 8 21.4479 8" stroke="#8A9499" stroke-miterlimit="10" stroke-linecap="round" stroke-linejoin="round"/>
<path d="M21.4479 8.01929H28.6293C29.6911 8.01929 30.5985 8.8301 30.7143 9.89188L31.0425 12.6911C31.1004 13.193 30.9459 13.695 30.6371 14.0811" stroke="#8A9499" stroke-miterlimit="10" stroke-linecap="round" stroke-linejoin="round"/>
<path d="M18.7451 33.4054C18.7451 33.4054 18.7644 30.2393 18.7644 29.6216C18.7644 29.3513 18.6486 29.0424 18.4169 28.8687C18.2432 28.7336 17.9922 28.6949 17.7798 28.8108C17.5675 28.9266 17.4709 29.2162 17.4709 29.4478" stroke="#8A9499" stroke-miterlimit="10" stroke-linecap="round" stroke-linejoin="round"/>
<path d="M18.7643 29.6988C19.0732 29.6023 19.4593 29.6023 19.6716 29.8726C19.8261 30.0656 19.8454 30.3359 19.8261 30.5869C19.8261 30.5869 19.7875 32.8263 19.7682 33.4054" stroke="#8A9499" stroke-miterlimit="10" stroke-linecap="round" stroke-linejoin="round"/>
<path d="M19.8261 30.857C19.9998 30.7605 20.2508 30.7412 20.4245 30.8377C20.6948 30.9921 20.83 31.3203 20.83 31.5713V35.0848C20.8493 35.606 20.83 37.7682 20.83 38.2894L20.7527 41.5906L16.1388 41.5713C16.1002 39.7952 15.6755 38.0384 14.884 36.4361L13.9574 34.5249C13.8994 34.2547 14.0539 33.9651 14.3435 33.8686C14.6137 33.7913 14.884 33.9072 15.0578 34.2354L15.4439 34.969C15.5404 35.162 15.772 35.2585 15.9844 35.1813C16.1388 35.1234 16.2547 34.969 16.2547 34.8145L16.3512 29.9689C16.3512 29.718 16.467 29.467 16.6987 29.3512C16.8531 29.2547 17.0462 29.2161 17.2199 29.2933C17.3164 29.3319 17.4516 29.4284 17.4902 29.5442L17.413 33.4053" stroke="#8A9499" stroke-miterlimit="10" stroke-linecap="round" stroke-linejoin="round"/>
<path d="M31.2547 33.4054C31.2547 33.4054 31.2354 30.2393 31.2354 29.6216C31.2354 29.3513 31.3512 29.0424 31.5829 28.8687C31.7566 28.7336 32.0076 28.6949 32.2199 28.8108C32.4323 28.9266 32.5288 29.2162 32.5288 29.4478" stroke="#8A9499" stroke-miterlimit="10" stroke-linecap="round" stroke-linejoin="round"/>
<path d="M31.2353 29.6988C30.9264 29.6023 30.5403 29.6023 30.328 29.8726C30.1735 30.0656 30.1542 30.3359 30.1735 30.5869C30.1735 30.5869 30.2122 32.8263 30.2315 33.4054" stroke="#8A9499" stroke-miterlimit="10" stroke-linecap="round" stroke-linejoin="round"/>
<path d="M30.1736 30.8572C29.9998 30.7607 29.7489 30.7414 29.5751 30.8379C29.3048 30.9924 29.1697 31.3206 29.1697 31.5715V35.085C29.1504 35.6063 29.1697 37.7684 29.1697 38.2897L29.2469 41.5908L33.8608 41.5715C33.8995 39.7955 34.3242 38.0387 35.1157 36.4364L36.0423 34.5252C36.1002 34.2549 35.9458 33.9653 35.6562 33.8688C35.3859 33.7916 35.1157 33.9074 34.9419 34.2356L34.5558 34.9692C34.4593 35.1622 34.2276 35.2588 34.0153 35.1816C33.8608 35.1236 33.745 34.9692 33.745 34.8148L33.6485 29.9692C33.6485 29.7182 33.5327 29.4673 33.301 29.3514C33.1466 29.2549 32.9535 29.2163 32.7797 29.2935C32.6832 29.3321 32.5481 29.4287 32.5095 29.5445L32.5867 33.4055" stroke="#8A9499" stroke-miterlimit="10" stroke-linecap="round" stroke-linejoin="round"/>
<path d="M20.6757 21.2432C21.6602 19.7374 21.1583 18.0193 21.1583 18.0193L23.2818 17.2471C23.8224 17.054 24.4015 16.9575 24.9807 16.9575C25.5212 16.9575 26.0618 17.054 26.5637 17.2085L28.9961 18.0193C28.9961 18.0193 28.4942 19.3127 29.305 21.2432" stroke="#8A9499" stroke-miterlimit="10" stroke-linecap="round" stroke-linejoin="round"/>
<path d="M28.9962 18.0195L30.6178 16.2241" stroke="#8A9499" stroke-miterlimit="10" stroke-linecap="round" stroke-linejoin="round"/>
<path d="M21.1582 18.0193L19.4208 16.3784" stroke="#8A9499" stroke-miterlimit="10" stroke-linecap="round" stroke-linejoin="round"/>
<path d="M14.2857 41.5909H12.5483C11.139 41.5909 10 40.4519 10 39.0426V30.8187C10 29.4674 10.9652 28.3091 12.278 28.0581L19.4788 26.7067C19.5367 26.6874 19.5753 26.6874 19.6332 26.6681C19.9421 26.5716 20.1544 26.282 20.1544 25.9538V25.7608C20.1544 25.587 20.3089 25.4519 20.4826 25.4905C21.7761 25.7222 23.3205 25.8766 25.0772 25.8766C26.7954 25.8766 28.3012 25.7029 29.5753 25.4905C29.749 25.4519 29.9035 25.587 29.9035 25.7608V26.0117C29.9035 26.3592 30.1351 26.6488 30.4633 26.726L30.5212 26.7453L37.722 28.0967C39.0541 28.3477 40 29.506 40 30.8573V39.0813C40 40.4905 38.861 41.6295 37.4517 41.6295H35.6178" stroke="#8A9499" stroke-miterlimit="10" stroke-linecap="round" stroke-linejoin="round"/>
<rect x="43" y="6" width="2" height="52" transform="rotate(45 43 6)" fill="white"/>
</svg>
