<svg width="50" height="50" viewBox="0 0 50 50" fill="none" xmlns="http://www.w3.org/2000/svg">
<circle cx="25" cy="25" r="25" fill="#ECECEC"/>
<path d="M24.9312 20.9731L25.6392 20.869C26.3889 20.744 27.1595 21.0356 27.6593 21.5978L27.8883 21.8685C28.0757 22.0768 28.2215 22.3267 28.3048 22.5974C28.7005 23.7636 29.596 26.9915 29.7626 29.2614C29.7834 29.5321 29.7626 30.0111 29.7418 30.3443C29.7209 30.74 29.471 31.094 29.0962 31.219C29.0545 31.2398 28.9712 31.219 28.8671 31.1982C27.9508 31.0316 27.7634 30.0528 27.3469 29.2198C27.1803 28.8866 26.9928 28.2827 26.8054 27.6371C26.5347 26.7208 26.2015 25.8461 25.785 24.9923" stroke="#8A9499" stroke-width="0.9" stroke-miterlimit="10" stroke-linecap="round" stroke-linejoin="round"/>
<path d="M28.9712 24.8881C29.8875 25.5545 32.2616 26.9914 32.2616 26.9914C32.2616 26.9914 32.8655 27.9494 33.0529 28.2826C33.3236 28.7407 33.8443 29.0323 34.3649 28.9282C34.9063 28.824 35.1354 28.3867 35.1146 27.991C35.1146 27.5745 33.7609 24.9714 33.4486 24.6174C33.157 24.305 32.1782 23.5345 31.3869 22.9305C30.9079 22.5557 30.429 22.16 29.9708 21.7643C29.7209 21.5561 29.3877 21.327 29.0545 21.2229" stroke="#8A9499" stroke-width="0.9" stroke-miterlimit="10" stroke-linecap="round" stroke-linejoin="round"/>
<path d="M33.4485 21.7854L37.197 22.0145C37.8634 22.1394 38.384 22.3477 38.7589 22.6809C39.2379 23.0974 39.1754 24.097 36.9471 24.2428H34.7188" stroke="#8A9499" stroke-width="0.9" stroke-miterlimit="10" stroke-linecap="round" stroke-linejoin="round"/>
<path d="M33.4485 14.0176V18.4324H31.0745V14.0176H31.3036V14.0384H33.1986V14.0176H33.4485Z" stroke="#8A9499" stroke-width="0.9" stroke-miterlimit="10" stroke-linecap="round" stroke-linejoin="round"/>
<path d="M31.0745 22.306V18.4326" stroke="#8A9499" stroke-width="0.9" stroke-miterlimit="10" stroke-linecap="round" stroke-linejoin="round"/>
<path d="M31.3035 14.0176H33.1985" stroke="#8A9499" stroke-width="0.9" stroke-miterlimit="10" stroke-linecap="round" stroke-linejoin="round"/>
<path d="M33.4485 18.4326V21.7854V24.6176" stroke="#8A9499" stroke-width="0.9" stroke-miterlimit="10" stroke-linecap="round" stroke-linejoin="round"/>
<path d="M33.1985 14.0176V14.0384H31.3035V14.0176L32.2614 12.0601L33.1985 14.0176Z" stroke="#8A9499" stroke-width="0.9" stroke-miterlimit="10" stroke-linecap="round" stroke-linejoin="round"/>
<path d="M32.2614 12.0601V6" stroke="#8A9499" stroke-width="0.9" stroke-miterlimit="10" stroke-linecap="round" stroke-linejoin="round"/>
<path d="M32.0531 30.865V26.9707" stroke="#8A9499" stroke-width="0.9" stroke-miterlimit="10" stroke-linecap="round" stroke-linejoin="round"/>
<path d="M9 34.5301L11.374 31.5104L16.8718 22.7431C17.4549 21.806 18.4962 21.2229 19.6207 21.2229H22.5362C23.2859 21.2229 23.9939 21.5561 24.4729 22.1184C24.7853 22.4932 24.9936 22.9514 25.056 23.4303L25.7016 28.2617C25.7016 28.2617 25.7641 30.6566 24.3272 30.0943C23.7857 29.8861 23.39 29.4071 23.2651 28.8448L22.0364 23.9301C22.0364 23.9301 20.7244 24.6174 19.6624 23.951" stroke="#8A9499" stroke-width="0.9" stroke-miterlimit="10" stroke-linecap="round" stroke-linejoin="round"/>
<path d="M27.3468 32.3645C29.346 32.0105 32.4073 30.761 33.6568 30.4902C34.6355 30.282 35.6768 30.5111 36.3432 31.3024C36.7805 31.8439 36.8846 32.5519 36.2391 32.9892C35.6351 33.4057 34.9063 33.3849 34.2399 33.614C34.2399 33.614 31.491 34.5303 29.221 35.3008C27.7633 35.8006 26.3264 36.3837 24.9311 37.0501C24.1814 37.4041 23.0985 37.779 21.7032 38.1122C20.2455 38.4454 18.8919 38.0289 18.1213 38.2996C17.5174 38.5079 16.7885 39.0493 16.1013 39.6532" stroke="#8A9499" stroke-width="0.9" stroke-miterlimit="10" stroke-linecap="round" stroke-linejoin="round"/>
<rect x="43" y="6" width="2" height="52" transform="rotate(45 43 6)" fill="white"/>
</svg>
