<svg width="36" height="36" viewBox="0 0 36 36" fill="none" xmlns="http://www.w3.org/2000/svg">
	<path fill-rule="evenodd" clip-rule="evenodd" d="M18 2.75C9.57484 2.75 2.75 9.57484 2.75 18C2.75 26.4252 9.57484 33.25 18 33.25C26.4252 33.25 33.25 26.4252 33.25 18C33.25 9.57484 26.4252 2.75 18 2.75ZM2.25 18C2.25 9.2987 9.2987 2.25 18 2.25C26.7013 2.25 33.75 9.2987 33.75 18C33.75 26.7013 26.7013 33.75 18 33.75C9.2987 33.75 2.25 26.7013 2.25 18Z" fill="#142933" />
	<path d="M18 36C13.1899 36 8.67171 34.1275 5.27209 30.7279C1.87247 27.3283 0 22.8101 0 18C0 13.1899 1.87247 8.67171 5.27209 5.27209C8.67171 1.87247 13.1899 0 18 0C22.8101 0 27.3283 1.87247 30.7279 5.27209C34.1275 8.67171 36 13.1899 36 18C36 22.8101 34.1275 27.3283 30.7279 30.7279C27.3283 34.1275 22.8101 36 18 36ZM18 1.10403C13.4866 1.10403 9.24075 2.85977 6.05026 6.05512C2.85977 9.24561 1.10403 13.4866 1.10403 18C1.10403 22.5134 2.85977 26.7593 6.05512 29.9497C9.24561 33.1402 13.4915 34.9008 18.0049 34.9008C22.5182 34.9008 26.7641 33.1451 29.9546 29.9497C33.1451 26.7593 34.9057 22.5134 34.9057 18C34.9057 13.4866 33.15 9.24075 29.9546 6.05026C26.7593 2.85977 22.5134 1.10403 18 1.10403Z" fill="#142933" />
	<path d="M8.71204 10.2861H10.332V15.4619C10.332 15.4619 10.3392 15.9514 10.8288 15.9514C11.3184 15.9514 11.3904 15.4619 11.3904 15.4619V10.2861H12.9672V15.4691C12.9672 15.4691 12.9744 17.1967 10.8576 17.1967C8.75524 17.1967 8.71204 15.4691 8.71204 15.4691V10.2861Z" fill="#142933" />
	<path d="M16.0992 12.4313H17.568C17.568 12.4313 17.6976 10.2861 15.5448 10.2861C14.9616 10.2861 14.3784 10.5381 14.0688 10.8764C13.7376 11.2363 13.572 11.6035 13.572 12.2225C13.572 12.712 13.6224 13.4463 14.8824 14.1518C15.6528 14.5837 16.1064 14.9076 16.1064 15.3683C16.1064 15.829 15.8544 15.9874 15.4944 15.9874C15.0192 15.9874 14.9544 15.4763 14.9544 15.4187C14.9544 15.3539 14.9472 14.85 14.9472 14.85H13.4352C13.4352 14.85 13.1544 17.2039 15.4584 17.2039C17.6976 17.2039 17.568 15.4835 17.568 15.1236C17.568 13.9718 17.0064 13.5903 16.1136 13.0936C15.3864 12.6833 15.0192 12.4385 15.0192 12.0282C15.0192 11.6179 15.2928 11.5099 15.516 11.5099C16.1136 11.5099 16.1064 12.0642 16.1064 12.129C16.1064 12.165 16.1136 12.4385 16.0992 12.4313Z" fill="#142933" />
	<path d="M20.4697 10.2861H18.2449V17.1967H20.5921C21.5209 17.1967 22.3849 16.6713 22.3849 15.6994V11.7978C22.3921 10.4949 21.0745 10.2861 20.4697 10.2861ZM20.7937 14.9796C20.7937 15.5915 20.7721 15.9298 20.3761 15.9298H19.8289V11.5531H20.3473C20.6353 11.5531 20.7937 11.6827 20.7937 12.5105V14.9796Z" fill="#142933" />
	<path d="M26.2152 10.2861H24.3576L22.896 17.1967H24.4368L24.6888 15.9154H25.884L26.0712 17.1824H27.6984L26.2152 10.2861ZM24.8688 14.6845L25.3224 11.5675L25.7184 14.6845H24.8688Z" fill="#142933" />
	<path d="M19.6848 19.9473H18.2952L17.2008 25.1302H18.36L18.5472 24.1656H19.44L19.584 25.1158H20.808L19.6848 19.9473ZM18.6696 23.2514L19.008 20.9119L19.3032 23.2514H18.6696Z" fill="#142933" />
	<path d="M8.10002 19.9473H7.48802C6.77522 19.9473 6.19922 20.516 6.19922 21.2214V23.8561C6.19922 24.5615 6.77522 25.1302 7.48802 25.1302H8.10002C8.81282 25.1302 9.38882 24.5615 9.38882 23.8561V21.2214C9.39602 20.516 8.82002 19.9473 8.10002 19.9473ZM8.20082 23.8489C8.20082 24.0792 8.02082 24.2664 7.79042 24.2664C7.56722 24.2664 7.38002 24.0792 7.38002 23.8489V21.2358C7.38002 21.0055 7.56002 20.8183 7.79042 20.8183C8.01362 20.8183 8.20082 21.0055 8.20082 21.2358V23.8489Z" fill="#142933" />
	<path d="M13.1256 23.8705C13.1256 22.402 12.5928 22.7331 12.5928 22.5459C12.5928 22.4164 13.14 22.4452 13.14 21.351C13.14 20.2568 12.5424 19.9473 11.8152 19.9473H9.94324V25.1302H11.1528V23.0858C11.6496 23.0858 11.9304 23.1794 11.9304 23.6545V25.1302H13.2984C13.2984 25.1302 13.3056 25.1302 13.3056 25.0294C13.2984 24.9359 13.1256 25.051 13.1256 23.8705ZM11.1312 22.0996V20.8831C11.3904 20.8831 11.9232 20.7823 11.9232 21.4806C11.9232 22.1716 11.5488 22.0996 11.1312 22.0996Z" fill="#142933" />
	<path d="M15.6528 23.201H15.2352V22.3444H16.8552V25.051H16.0056V24.6047C16.0056 24.6047 15.7752 25.1374 14.94 25.1374C14.1048 25.1374 13.6296 24.5615 13.6296 23.8777V21.0846C13.6296 20.4224 14.3568 19.9473 15.2352 19.9473C16.1136 19.9473 16.8192 20.4368 16.8192 21.0558C16.8192 21.6821 16.8192 21.7685 16.8192 21.7685H15.6456V21.1926C15.6456 20.9695 15.3936 20.8039 15.2496 20.8039C15.1128 20.8039 14.8104 20.9047 14.8104 21.2358V23.7193C14.8104 24.0216 14.9328 24.2304 15.2208 24.2304C15.516 24.2304 15.6816 23.9785 15.6816 23.7553C15.6816 23.5321 15.6672 23.165 15.6528 23.201Z" fill="#142933" />
	<path d="M22.248 22.5028V25.1158H21.1248V19.9473H22.3776L23.256 22.8123V19.9617H24.3648V25.1302H23.076L22.248 22.5028Z" fill="#142933" />
	<path d="M26.1216 19.9473H24.948V25.1302H26.1216V19.9473Z" fill="#142933" />
	<path d="M28.7424 21.79H29.916V21.0269C29.916 20.5806 29.484 19.9399 28.224 19.9399C26.964 19.9399 26.7336 20.8254 26.7336 21.2213V23.7984C26.7336 24.2879 26.9496 25.1157 28.26 25.1157C29.5704 25.1157 29.9808 24.2951 29.9808 23.9927V23.0857H28.7568V23.8488C28.7568 24.0431 28.5696 24.2231 28.3464 24.2231C28.1376 24.2231 27.936 24.1007 27.936 23.8488V21.2213C27.936 20.9837 28.0512 20.8686 28.3464 20.8686C28.5984 20.8686 28.7496 21.0917 28.7496 21.2645C28.7496 21.4372 28.7496 21.8044 28.7424 21.79Z" fill="#142933" />
</svg>
