<svg width="16" height="16" viewBox="0 0 16 16" fill="none" xmlns="http://www.w3.org/2000/svg">
	<g clip-path="url(#clip0_1_987)">
		<path fill-rule="evenodd" clip-rule="evenodd" d="M3.59251 1.12962C3.71491 0.966413 3.90702 0.870361 4.11102 0.870361H11.8888C12.0928 0.870361 12.2849 0.966413 12.4073 1.12962L14.3518 3.72221C14.4359 3.83441 14.4814 3.97086 14.4814 4.1111V13.1852C14.4814 13.7009 14.2765 14.1955 13.9119 14.5601C13.5472 14.9248 13.0526 15.1296 12.5369 15.1296H3.46288C2.94718 15.1296 2.4526 14.9248 2.08795 14.5601C1.72329 14.1955 1.51843 13.7009 1.51843 13.1852V4.1111C1.51843 3.97086 1.56392 3.83441 1.64806 3.72221L3.59251 1.12962ZM4.4351 2.16666L2.81473 4.32715V13.1852C2.81473 13.3571 2.88302 13.5219 3.00457 13.6435C3.12612 13.765 3.29098 13.8333 3.46288 13.8333H12.5369C12.7088 13.8333 12.8737 13.765 12.9953 13.6435C13.1168 13.5219 13.1851 13.3571 13.1851 13.1852V4.32715L11.5647 2.16666H4.4351Z" fill="#142933" />
		<path fill-rule="evenodd" clip-rule="evenodd" d="M1.51843 4.1111C1.51843 3.75314 1.80862 3.46295 2.16658 3.46295H13.8332C14.1912 3.46295 14.4814 3.75314 14.4814 4.1111C14.4814 4.46906 14.1912 4.75925 13.8332 4.75925H2.16658C1.80862 4.75925 1.51843 4.46906 1.51843 4.1111Z" fill="#142933" />
		<path fill-rule="evenodd" clip-rule="evenodd" d="M5.40732 6.05555C5.76528 6.05555 6.05547 6.34573 6.05547 6.70369C6.05547 7.21939 6.26033 7.71397 6.62498 8.07863C6.98964 8.44328 7.48421 8.64814 7.99991 8.64814C8.51561 8.64814 9.01019 8.44328 9.37484 8.07863C9.7395 7.71397 9.94436 7.21939 9.94436 6.70369C9.94436 6.34573 10.2345 6.05555 10.5925 6.05555C10.9505 6.05555 11.2407 6.34573 11.2407 6.70369C11.2407 7.56319 10.8992 8.38749 10.2915 8.99524C9.68371 9.603 8.85941 9.94444 7.99991 9.94444C7.14042 9.94444 6.31612 9.603 5.70836 8.99524C5.10061 8.38749 4.75917 7.56319 4.75917 6.70369C4.75917 6.34573 5.04936 6.05555 5.40732 6.05555Z" fill="#142933" />
	</g>
	<defs>
		<clipPath id="clip0_1_987">
			<rect width="15.5556" height="15.5556" fill="white" transform="translate(0.222168 0.222168)" />
		</clipPath>
	</defs>
</svg>
