<svg width="79" height="15" viewBox="0 0 79 15" fill="none" xmlns="http://www.w3.org/2000/svg">
<path d="M3.232 14.272L4.944 9.184L0.816 6.416H5.872L7.68 0.959999L9.52 6.416H14.544L10.416 9.184L12.16 14.272L7.68 11.024L3.232 14.272ZM19.2314 14.272L20.9434 9.184L16.8154 6.416H21.8714L23.6794 0.959999L25.5194 6.416H30.5434L26.4154 9.184L28.1594 14.272L23.6794 11.024L19.2314 14.272ZM35.2308 14.272L36.9428 9.184L32.8148 6.416H37.8708L39.6788 0.959999L41.5188 6.416H46.5428L42.4148 9.184L44.1588 14.272L39.6788 11.024L35.2308 14.272ZM51.2301 14.272L52.9421 9.184L48.8141 6.416H53.8701L55.6781 0.959999L57.5181 6.416H62.5421L58.4141 9.184L60.1581 14.272L55.6781 11.024L51.2301 14.272ZM67.2295 14.272L68.9415 9.184L64.8135 6.416H69.8695L71.6775 0.959999L73.5175 6.416H78.5415L74.4135 9.184L76.1575 14.272L71.6775 11.024L67.2295 14.272Z" fill="#FFD500"/>
<path d="M3.232 14.272L4.944 9.184L0.816 6.416H5.872L7.68 0.959999L9.52 6.416H14.544L10.416 9.184L12.16 14.272L7.68 11.024L3.232 14.272ZM19.2314 14.272L20.9434 9.184L16.8154 6.416H21.8714L23.6794 0.959999L25.5194 6.416H30.5434L26.4154 9.184L28.1594 14.272L23.6794 11.024L19.2314 14.272ZM35.2308 14.272L36.9428 9.184L32.8148 6.416H37.8708L39.6788 0.959999L41.5188 6.416H46.5428L42.4148 9.184L44.1588 14.272L39.6788 11.024L35.2308 14.272ZM51.2301 14.272L52.9421 9.184L48.8141 6.416H53.8701L55.6781 0.959999L57.5181 6.416H62.5421L58.4141 9.184L60.1581 14.272L55.6781 11.024L51.2301 14.272ZM67.2295 14.272L68.9415 9.184L64.8135 6.416H69.8695L71.6775 0.959999L73.5175 6.416H78.5415L74.4135 9.184L76.1575 14.272L71.6775 11.024L67.2295 14.272Z" fill="url(#paint0_linear_1_777)" fill-opacity="0.7"/>
<path d="M3.232 14.272L2.75811 14.1125C2.68865 14.319 2.7608 14.5466 2.93649 14.6753C3.11217 14.804 3.35097 14.8042 3.52686 14.6758L3.232 14.272ZM4.944 9.184L5.41789 9.34345C5.48981 9.12973 5.40976 8.89431 5.22246 8.76872L4.944 9.184ZM0.816 6.416V5.916C0.595914 5.916 0.401708 6.05991 0.337649 6.27047C0.273589 6.48102 0.354742 6.70871 0.537537 6.83128L0.816 6.416ZM5.872 6.416V6.916C6.08754 6.916 6.27882 6.77788 6.34662 6.57328L5.872 6.416ZM7.68 0.959999L8.15378 0.800219C8.08506 0.596441 7.89373 0.459434 7.67868 0.460001C7.46363 0.460568 7.27303 0.598583 7.20538 0.802721L7.68 0.959999ZM9.52 6.416L9.04622 6.57578C9.11479 6.7791 9.30543 6.916 9.52 6.916V6.416ZM14.544 6.416L14.8225 6.83128C15.0053 6.70871 15.0864 6.48102 15.0224 6.27047C14.9583 6.05991 14.7641 5.916 14.544 5.916V6.416ZM10.416 9.184L10.1375 8.76872C9.94937 8.89489 9.86956 9.13181 9.94301 9.34612L10.416 9.184ZM12.16 14.272L11.8665 14.6768C12.043 14.8048 12.2821 14.8036 12.4573 14.674C12.6326 14.5443 12.7037 14.3161 12.633 14.1099L12.16 14.272ZM7.68 11.024L7.97348 10.6192C7.7979 10.4919 7.56028 10.4923 7.38514 10.6202L7.68 11.024ZM3.70589 14.4315L5.41789 9.34345L4.47011 9.02455L2.75811 14.1125L3.70589 14.4315ZM5.22246 8.76872L1.09446 6.00072L0.537537 6.83128L4.66554 9.59928L5.22246 8.76872ZM0.816 6.916H5.872V5.916H0.816V6.916ZM6.34662 6.57328L8.15462 1.11728L7.20538 0.802721L5.39738 6.25872L6.34662 6.57328ZM7.20622 1.11978L9.04622 6.57578L9.99378 6.25622L8.15378 0.800219L7.20622 1.11978ZM9.52 6.916H14.544V5.916H9.52V6.916ZM14.2655 6.00072L10.1375 8.76872L10.6945 9.59928L14.8225 6.83128L14.2655 6.00072ZM9.94301 9.34612L11.687 14.4341L12.633 14.1099L10.889 9.02188L9.94301 9.34612ZM12.4535 13.8672L7.97348 10.6192L7.38652 11.4288L11.8665 14.6768L12.4535 13.8672ZM7.38514 10.6202L2.93714 13.8682L3.52686 14.6758L7.97486 11.4278L7.38514 10.6202ZM19.2314 14.272L18.7575 14.1125C18.688 14.319 18.7602 14.5466 18.9359 14.6753C19.1115 14.804 19.3503 14.8042 19.5262 14.6758L19.2314 14.272ZM20.9434 9.184L21.4173 9.34345C21.4892 9.12973 21.4091 8.89431 21.2218 8.76872L20.9434 9.184ZM16.8154 6.416V5.916C16.5953 5.916 16.4011 6.05991 16.337 6.27047C16.273 6.48102 16.3541 6.70871 16.5369 6.83128L16.8154 6.416ZM21.8714 6.416V6.916C22.0869 6.916 22.2782 6.77788 22.346 6.57328L21.8714 6.416ZM23.6794 0.959999L24.1532 0.800219C24.0844 0.596441 23.8931 0.459434 23.6781 0.460001C23.463 0.460568 23.2724 0.598583 23.2048 0.802721L23.6794 0.959999ZM25.5194 6.416L25.0456 6.57578C25.1142 6.7791 25.3048 6.916 25.5194 6.916V6.416ZM30.5434 6.416L30.8218 6.83128C31.0046 6.70871 31.0858 6.48102 31.0217 6.27047C30.9577 6.05991 30.7635 5.916 30.5434 5.916V6.416ZM26.4154 9.184L26.1369 8.76872C25.9487 8.89489 25.8689 9.13181 25.9424 9.34612L26.4154 9.184ZM28.1594 14.272L27.8659 14.6768C28.0424 14.8048 28.2814 14.8036 28.4567 14.674C28.632 14.5443 28.703 14.3161 28.6324 14.1099L28.1594 14.272ZM23.6794 11.024L23.9729 10.6192C23.7973 10.4919 23.5597 10.4923 23.3845 10.6202L23.6794 11.024ZM19.7053 14.4315L21.4173 9.34345L20.4695 9.02455L18.7575 14.1125L19.7053 14.4315ZM21.2218 8.76872L17.0938 6.00072L16.5369 6.83128L20.6649 9.59928L21.2218 8.76872ZM16.8154 6.916H21.8714V5.916H16.8154V6.916ZM22.346 6.57328L24.154 1.11728L23.2048 0.802721L21.3968 6.25872L22.346 6.57328ZM23.2056 1.11978L25.0456 6.57578L25.9932 6.25622L24.1532 0.800219L23.2056 1.11978ZM25.5194 6.916H30.5434V5.916H25.5194V6.916ZM30.2649 6.00072L26.1369 8.76872L26.6938 9.59928L30.8218 6.83128L30.2649 6.00072ZM25.9424 9.34612L27.6864 14.4341L28.6324 14.1099L26.8884 9.02188L25.9424 9.34612ZM28.4529 13.8672L23.9729 10.6192L23.3859 11.4288L27.8659 14.6768L28.4529 13.8672ZM23.3845 10.6202L18.9365 13.8682L19.5262 14.6758L23.9742 11.4278L23.3845 10.6202ZM35.2308 14.272L34.7569 14.1125C34.6874 14.319 34.7596 14.5466 34.9352 14.6753C35.1109 14.804 35.3497 14.8042 35.5256 14.6758L35.2308 14.272ZM36.9427 9.184L37.4166 9.34345C37.4886 9.12973 37.4085 8.89431 37.2212 8.76872L36.9427 9.184ZM32.8148 6.416V5.916C32.5947 5.916 32.4005 6.05991 32.3364 6.27047C32.2723 6.48102 32.3535 6.70871 32.5363 6.83128L32.8148 6.416ZM37.8708 6.416V6.916C38.0863 6.916 38.2776 6.77788 38.3454 6.57328L37.8708 6.416ZM39.6787 0.959999L40.1525 0.800219C40.0838 0.596441 39.8925 0.459434 39.6774 0.460001C39.4624 0.460568 39.2718 0.598583 39.2041 0.802721L39.6787 0.959999ZM41.5188 6.416L41.045 6.57578C41.1135 6.7791 41.3042 6.916 41.5188 6.916V6.416ZM46.5428 6.416L46.8212 6.83128C47.004 6.70871 47.0852 6.48102 47.0211 6.27047C46.957 6.05991 46.7628 5.916 46.5428 5.916V6.416ZM42.4147 9.184L42.1363 8.76872C41.9481 8.89489 41.8683 9.13181 41.9418 9.34612L42.4147 9.184ZM44.1588 14.272L43.8653 14.6768C44.0418 14.8048 44.2808 14.8036 44.4561 14.674C44.6314 14.5443 44.7024 14.3161 44.6317 14.1099L44.1588 14.272ZM39.6787 11.024L39.9722 10.6192C39.7967 10.4919 39.559 10.4923 39.3839 10.6202L39.6787 11.024ZM35.7046 14.4315L37.4166 9.34345L36.4689 9.02455L34.7569 14.1125L35.7046 14.4315ZM37.2212 8.76872L33.0932 6.00072L32.5363 6.83128L36.6643 9.59928L37.2212 8.76872ZM32.8148 6.916H37.8708V5.916H32.8148V6.916ZM38.3454 6.57328L40.1534 1.11728L39.2041 0.802721L37.3961 6.25872L38.3454 6.57328ZM39.205 1.11978L41.045 6.57578L41.9925 6.25622L40.1525 0.800219L39.205 1.11978ZM41.5188 6.916H46.5428V5.916H41.5188V6.916ZM46.2643 6.00072L42.1363 8.76872L42.6932 9.59928L46.8212 6.83128L46.2643 6.00072ZM41.9418 9.34612L43.6858 14.4341L44.6317 14.1099L42.8877 9.02188L41.9418 9.34612ZM44.4522 13.8672L39.9722 10.6192L39.3853 11.4288L43.8653 14.6768L44.4522 13.8672ZM39.3839 10.6202L34.9359 13.8682L35.5256 14.6758L39.9736 11.4278L39.3839 10.6202ZM51.2301 14.272L50.7562 14.1125C50.6868 14.319 50.7589 14.5466 50.9346 14.6753C51.1103 14.804 51.3491 14.8042 51.525 14.6758L51.2301 14.272ZM52.9421 9.184L53.416 9.34345C53.4879 9.12973 53.4079 8.89431 53.2206 8.76872L52.9421 9.184ZM48.8141 6.416V5.916C48.594 5.916 48.3998 6.05991 48.3358 6.27047C48.2717 6.48102 48.3529 6.70871 48.5357 6.83128L48.8141 6.416ZM53.8701 6.416V6.916C54.0857 6.916 54.2769 6.77788 54.3447 6.57328L53.8701 6.416ZM55.6781 0.959999L56.1519 0.800219C56.0832 0.596441 55.8919 0.459434 55.6768 0.460001C55.4618 0.460568 55.2712 0.598583 55.2035 0.802721L55.6781 0.959999ZM57.5181 6.416L57.0443 6.57578C57.1129 6.7791 57.3036 6.916 57.5181 6.916V6.416ZM62.5421 6.416L62.8206 6.83128C63.0034 6.70871 63.0845 6.48102 63.0205 6.27047C62.9564 6.05991 62.7622 5.916 62.5421 5.916V6.416ZM58.4141 9.184L58.1357 8.76872C57.9475 8.89489 57.8677 9.13181 57.9411 9.34612L58.4141 9.184ZM60.1581 14.272L59.8646 14.6768C60.0411 14.8048 60.2802 14.8036 60.4555 14.674C60.6307 14.5443 60.7018 14.3161 60.6311 14.1099L60.1581 14.272ZM55.6781 11.024L55.9716 10.6192C55.796 10.4919 55.5584 10.4923 55.3833 10.6202L55.6781 11.024ZM51.704 14.4315L53.416 9.34345L52.4682 9.02455L50.7562 14.1125L51.704 14.4315ZM53.2206 8.76872L49.0926 6.00072L48.5357 6.83128L52.6637 9.59928L53.2206 8.76872ZM48.8141 6.916H53.8701V5.916H48.8141V6.916ZM54.3447 6.57328L56.1527 1.11728L55.2035 0.802721L53.3955 6.25872L54.3447 6.57328ZM55.2043 1.11978L57.0443 6.57578L57.9919 6.25622L56.1519 0.800219L55.2043 1.11978ZM57.5181 6.916H62.5421V5.916H57.5181V6.916ZM62.2637 6.00072L58.1357 8.76872L58.6926 9.59928L62.8206 6.83128L62.2637 6.00072ZM57.9411 9.34612L59.6851 14.4341L60.6311 14.1099L58.8871 9.02188L57.9411 9.34612ZM60.4516 13.8672L55.9716 10.6192L55.3846 11.4288L59.8646 14.6768L60.4516 13.8672ZM55.3833 10.6202L50.9353 13.8682L51.525 14.6758L55.973 11.4278L55.3833 10.6202ZM67.2295 14.272L66.7556 14.1125C66.6861 14.319 66.7583 14.5466 66.934 14.6753C67.1097 14.804 67.3485 14.8042 67.5244 14.6758L67.2295 14.272ZM68.9415 9.184L69.4154 9.34345C69.4873 9.12973 69.4073 8.89431 69.22 8.76872L68.9415 9.184ZM64.8135 6.416V5.916C64.5934 5.916 64.3992 6.05991 64.3352 6.27047C64.2711 6.48102 64.3522 6.70871 64.535 6.83128L64.8135 6.416ZM69.8695 6.416V6.916C70.085 6.916 70.2763 6.77788 70.3441 6.57328L69.8695 6.416ZM71.6775 0.959999L72.1513 0.800219C72.0826 0.596441 71.8912 0.459434 71.6762 0.460001C71.4611 0.460568 71.2705 0.598583 71.2029 0.802721L71.6775 0.959999ZM73.5175 6.416L73.0437 6.57578C73.1123 6.7791 73.3029 6.916 73.5175 6.916V6.416ZM78.5415 6.416L78.82 6.83128C79.0028 6.70871 79.0839 6.48102 79.0199 6.27047C78.9558 6.05991 78.7616 5.916 78.5415 5.916V6.416ZM74.4135 9.184L74.135 8.76872C73.9469 8.89489 73.8671 9.13181 73.9405 9.34612L74.4135 9.184ZM76.1575 14.272L75.864 14.6768C76.0405 14.8048 76.2796 14.8036 76.4548 14.674C76.6301 14.5443 76.7012 14.3161 76.6305 14.1099L76.1575 14.272ZM71.6775 11.024L71.971 10.6192C71.7954 10.4919 71.5578 10.4923 71.3826 10.6202L71.6775 11.024ZM67.7034 14.4315L69.4154 9.34345L68.4676 9.02455L66.7556 14.1125L67.7034 14.4315ZM69.22 8.76872L65.092 6.00072L64.535 6.83128L68.663 9.59928L69.22 8.76872ZM64.8135 6.916H69.8695V5.916H64.8135V6.916ZM70.3441 6.57328L72.1521 1.11728L71.2029 0.802721L69.3949 6.25872L70.3441 6.57328ZM71.2037 1.11978L73.0437 6.57578L73.9913 6.25622L72.1513 0.800219L71.2037 1.11978ZM73.5175 6.916H78.5415V5.916H73.5175V6.916ZM78.263 6.00072L74.135 8.76872L74.692 9.59928L78.82 6.83128L78.263 6.00072ZM73.9405 9.34612L75.6845 14.4341L76.6305 14.1099L74.8865 9.02188L73.9405 9.34612ZM76.451 13.8672L71.971 10.6192L71.384 11.4288L75.864 14.6768L76.451 13.8672ZM71.3826 10.6202L66.9346 13.8682L67.5244 14.6758L71.9724 11.4278L71.3826 10.6202Z" fill="#FFAA00" fill-opacity="0.5"/>
<defs>
<linearGradient id="paint0_linear_1_777" x1="40" y1="3" x2="40" y2="14" gradientUnits="userSpaceOnUse">
<stop stop-color="white"/>
<stop offset="1" stop-color="white" stop-opacity="0"/>
</linearGradient>
</defs>
</svg>
