<svg width="34" height="34" viewBox="0 0 34 34" fill="none" xmlns="http://www.w3.org/2000/svg">
<path d="M29.25 4.75L21.0833 12.9167M21.0833 12.9167V6.11111M21.0833 12.9167H27.8889M7.47222 4.75C5.96878 4.75 4.75 5.96878 4.75 7.47222V8.83333C4.75 20.1091 13.8909 29.25 25.1667 29.25H26.5278C28.0312 29.25 29.25 28.0312 29.25 26.5278V22.0644C29.25 21.4785 28.8751 20.9584 28.3193 20.7731L22.2032 18.7344C21.5606 18.5202 20.8583 18.8111 20.5554 19.417L19.0192 22.4894C15.6917 20.9891 13.0109 18.3083 11.5106 14.9808L14.583 13.4446C15.1889 13.1417 15.4798 12.4394 15.2656 11.7968L13.2269 5.68069C13.0416 5.12489 12.5215 4.75 11.9356 4.75H7.47222Z" stroke="#142933" stroke-linecap="round" stroke-linejoin="round"/>
</svg>
