<svg width="34" height="34" viewBox="0 0 34 34" fill="none" xmlns="http://www.w3.org/2000/svg">
<path d="M18.3614 22.4444V8.83328C18.3614 8.08156 17.752 7.47217 17.0002 7.47217H6.11136C5.35963 7.47217 4.75024 8.08156 4.75024 8.83328V22.4444C4.75024 23.1961 5.35963 23.8055 6.11136 23.8055H7.47247M18.3614 22.4444C18.3614 23.1961 17.752 23.8055 17.0002 23.8055H12.9169M18.3614 22.4444L18.3614 11.5555C18.3614 10.8038 18.9707 10.1944 19.7225 10.1944H23.242C23.603 10.1944 23.9492 10.3378 24.2045 10.5931L28.8516 15.2402C29.1068 15.4954 29.2503 15.8416 29.2503 16.2026V22.4444C29.2503 23.1961 28.6409 23.8055 27.8891 23.8055H26.528M18.3614 22.4444C18.3614 23.1961 18.9707 23.8055 19.7225 23.8055H21.0836M7.47247 23.8055C7.47247 25.3089 8.69125 26.5277 10.1947 26.5277C11.6981 26.5277 12.9169 25.3089 12.9169 23.8055M7.47247 23.8055C7.47247 22.3021 8.69125 21.0833 10.1947 21.0833C11.6981 21.0833 12.9169 22.3021 12.9169 23.8055M21.0836 23.8055C21.0836 25.3089 22.3024 26.5277 23.8058 26.5277C25.3092 26.5277 26.528 25.3089 26.528 23.8055M21.0836 23.8055C21.0836 22.3021 22.3024 21.0833 23.8058 21.0833C25.3092 21.0833 26.528 22.3021 26.528 23.8055" stroke="#142933"/>
</svg>
