<svg width="70" height="70" viewBox="0 0 70 70" fill="none" xmlns="http://www.w3.org/2000/svg">
	<path d="M21.5134 23.1714C22.9834 24.5481 24.4534 25.9481 25.8767 27.3481C27.2534 28.7014 29.1201 30.4514 31.5234 32.4348C33.5534 34.1148 35.5601 35.8648 37.5434 37.6148C38.6168 38.5481 39.7367 39.4348 40.9501 40.1348C44.6134 42.3281 48.0434 44.6148 51.2868 47.4148C51.6834 47.7648 52.1501 47.9748 52.6634 48.0681L53.2001 48.1614C53.4567 48.2081 53.6434 48.4181 53.6667 48.6514C53.6901 48.8848 53.5734 49.0948 53.3868 49.2114L53.0134 49.4214C52.9201 49.4681 52.8034 49.4914 52.7101 49.4914C50.7034 49.3748 48.7201 49.0481 46.7601 48.5814C44.7534 48.0914 44.0768 48.2781 43.2368 48.4881C43.0268 48.5348 42.8168 48.6048 42.6068 48.6748L41.1368 49.0948C40.7634 49.1414 40.3668 49.0948 39.9701 48.8848C39.1534 48.4648 38.7801 47.6714 38.6634 46.8314C38.5934 46.3881 38.5934 45.9448 38.6167 45.5014C38.6167 45.5014 38.6167 45.5014 38.6167 45.4781C38.6401 45.1748 38.6868 44.8481 38.5934 44.5448C38.4534 44.0548 37.9868 43.7514 37.5201 43.5648C35.3968 42.6548 33.3901 41.4181 31.3601 40.2981C31.3601 40.2981 29.7268 39.5281 27.4401 38.3148" stroke="#142933" stroke-miterlimit="10" stroke-linecap="round" stroke-linejoin="round" />
	<path d="M15.8667 33.998L18.6434 37.2881C18.9934 37.6614 19.4834 38.3381 19.4367 38.8281C19.4134 39.1314 19.25 39.4114 19.11 39.6914C18.9234 40.0647 18.7367 40.4847 18.6434 40.9281C18.4334 41.7681 18.48 42.6314 19.0634 43.3314C19.3667 43.6814 19.6934 43.868 20.0667 43.9847L21.5834 44.148C21.7934 44.148 22.0267 44.1714 22.2367 44.218C23.1 44.358 23.7767 44.4514 25.4567 45.6647C27.0667 46.8547 28.7934 47.9047 30.5901 48.7914C30.6834 48.838 30.8 48.8614 30.8934 48.8381L31.3367 48.7914C31.57 48.768 31.7567 48.6047 31.8267 48.3947C31.8967 48.1614 31.8034 47.8814 31.5934 47.7414L31.1267 47.4381C30.6834 47.1581 30.3334 46.7614 30.1 46.318C28.21 42.468 25.9234 39.038 23.38 35.608C22.6567 34.628 22.0267 33.578 21.4667 32.458C21.3734 32.2947 21.3034 32.1314 21.21 31.9447C20.0434 29.5647 18.8767 27.1847 17.6401 24.8514" stroke="#142933" stroke-miterlimit="10" stroke-linecap="round" stroke-linejoin="round" />
	<path d="M30.6832 33.4147C31.3832 34.0447 31.1266 34.0914 30.9632 34.8847C30.7999 35.6781 31.3599 35.5381 31.2432 36.2147C31.2199 36.3547 31.1266 36.4947 31.0099 36.6114C30.4966 37.1481 29.6332 37.1014 29.0966 36.6114L23.9399 31.7114C23.4499 31.2447 23.3566 30.4981 23.7299 29.9381C23.9399 29.6114 24.1032 29.2614 24.0332 28.9347V28.9114C23.9399 28.3747 24.5699 28.0247 24.9899 28.3981" stroke="#142933" stroke-miterlimit="10" stroke-linecap="round" stroke-linejoin="round" />
	<path d="M38.6842 16.5041L35.8381 15.4L34.0055 22.1393L33.4748 24.0764L33.2831 24.7839C33.2296 24.9931 33.3354 25.2181 33.5433 25.2987L35.0462 25.8818L36.5812 26.4773C36.7891 26.5579 37.027 26.4662 37.1236 26.2646L41.4264 17.5679L38.6842 16.5041" stroke="#142933" stroke-miterlimit="10" stroke-linecap="round" stroke-linejoin="round" />
	<path d="M40.779 18.8805L35.4546 16.8149" stroke="#142933" stroke-miterlimit="10" stroke-linecap="round" stroke-linejoin="round" />
	<path d="M33.3672 25.2305L32.7004 26.9494C32.6539 27.0693 32.7095 27.2104 32.8374 27.2601L35.7554 28.3921C35.8753 28.4386 36.0165 28.383 36.0661 28.2551L36.7329 26.5362" stroke="#142933" stroke-miterlimit="10" stroke-linecap="round" stroke-linejoin="round" />
</svg>
