<svg width="16" height="16" viewBox="0 0 16 16" fill="none" xmlns="http://www.w3.org/2000/svg">
<g clip-path="url(#clip0_1_990)">
<path fill-rule="evenodd" clip-rule="evenodd" d="M6.72408 1.06266C6.83109 0.821904 7.06983 0.666748 7.33329 0.666748C8.04054 0.666748 8.71881 0.9477 9.21891 1.4478C9.71901 1.94789 9.99996 2.62617 9.99996 3.33341V5.33341H13.1032C13.3917 5.33074 13.6774 5.39053 13.9406 5.50867C14.2052 5.62739 14.4407 5.80219 14.6309 6.02097C14.8212 6.23975 14.9616 6.49728 15.0424 6.77571C15.1233 7.05414 15.1426 7.34681 15.0991 7.63346L14.1791 13.6334C14.1791 13.6335 14.1791 13.6332 14.1791 13.6334C14.1067 14.1101 13.8644 14.5451 13.497 14.8574C13.1305 15.1689 12.6641 15.3379 12.1832 15.3334H2.66663C2.13619 15.3334 1.62748 15.1227 1.25241 14.7476C0.87734 14.3726 0.666626 13.8638 0.666626 13.3334V8.66675C0.666626 8.13631 0.87734 7.62761 1.25241 7.25253C1.62748 6.87746 2.13619 6.66675 2.66663 6.66675H4.23338L6.72408 1.06266ZM5.33329 7.47489L7.73851 2.06315C7.93943 2.12725 8.12421 2.23871 8.2761 2.39061C8.52615 2.64065 8.66663 2.97979 8.66663 3.33341V6.00008C8.66663 6.36827 8.9651 6.66675 9.33329 6.66675H13.1066L13.1142 6.66671C13.2108 6.66561 13.3065 6.68554 13.3947 6.72511C13.4829 6.76468 13.5614 6.82295 13.6248 6.89588C13.6882 6.9688 13.735 7.05465 13.762 7.14746C13.7889 7.24018 13.7953 7.33764 13.7809 7.43311C13.7809 7.4332 13.7809 7.43302 13.7809 7.43311L12.8608 13.4335C12.8367 13.5924 12.756 13.7373 12.6335 13.8415C12.511 13.9456 12.3549 14.0019 12.1942 14.0001L5.33329 14.0001V7.47489ZM3.99996 14.0001V8.00008H2.66663C2.48982 8.00008 2.32025 8.07032 2.19522 8.19534C2.0702 8.32037 1.99996 8.48994 1.99996 8.66675V13.3334C1.99996 13.5102 2.0702 13.6798 2.19522 13.8048C2.32025 13.9298 2.48982 14.0001 2.66663 14.0001H3.99996Z" fill="#142933"/>
</g>
<defs>
<clipPath id="clip0_1_990">
<rect width="16" height="16" fill="white"/>
</clipPath>
</defs>
</svg>
