<svg width="16" height="16" viewBox="0 0 16 16" fill="none" xmlns="http://www.w3.org/2000/svg">
<g clip-path="url(#clip0_1_1062)">
<path fill-rule="evenodd" clip-rule="evenodd" d="M13.5508 2.37121C13.3929 2.2357 13.1908 2.16287 12.9827 2.16655L12.9713 2.16665H11.8889V7.99998H12.9713L12.9827 8.00008C13.1908 8.00376 13.3929 7.93093 13.5508 7.79541C13.6992 7.66806 13.7987 7.49368 13.8333 7.30201V2.86462C13.7987 2.67295 13.6992 2.49857 13.5508 2.37121ZM10.5926 8.51058L8.25417 13.772C8.05883 13.7097 7.87919 13.6013 7.73152 13.4536C7.48841 13.2105 7.35184 12.8808 7.35184 12.537V9.94443C7.35184 9.58646 7.06165 9.29628 6.70369 9.29628H3.03517L3.02783 9.29632C2.93388 9.29738 2.84082 9.27801 2.7551 9.23954C2.66938 9.20106 2.59305 9.14441 2.5314 9.07351C2.46975 9.00261 2.42424 8.91915 2.39805 8.82892C2.37189 8.73881 2.3656 8.64409 2.37963 8.55132C2.37961 8.55144 2.37965 8.5512 2.37963 8.55132L3.27414 2.71753C3.29758 2.56298 3.37609 2.4221 3.49519 2.32086C3.6143 2.21962 3.76598 2.16484 3.92229 2.16661L10.5926 2.16665V8.51058ZM12.9661 0.870352C13.4895 0.862617 13.9978 1.04654 14.3951 1.38759C14.794 1.73 15.0533 2.20695 15.1238 2.72792C15.1277 2.75671 15.1296 2.78574 15.1296 2.8148V7.35183C15.1296 7.38089 15.1277 7.40992 15.1238 7.43871C15.0533 7.95968 14.794 8.43663 14.3951 8.77904C13.9978 9.12009 13.4895 9.30401 12.9661 9.29628H11.6619L9.24042 14.7447C9.13639 14.9788 8.90428 15.1296 8.64814 15.1296C7.96054 15.1296 7.3011 14.8565 6.8149 14.3703C6.32869 13.8841 6.05554 13.2246 6.05554 12.537V10.5926H3.03849C2.758 10.5952 2.48025 10.537 2.22432 10.4222C1.96716 10.3068 1.73817 10.1368 1.55321 9.92412C1.36825 9.71141 1.23174 9.46104 1.15315 9.19034C1.07457 8.91965 1.05577 8.6351 1.09807 8.35642L1.9925 2.52317C1.99247 2.52337 1.99253 2.52298 1.9925 2.52317C2.06292 2.05974 2.29848 1.63676 2.65565 1.33316C3.01194 1.03031 3.46541 0.866035 3.93291 0.870352H12.9661Z" fill="#142933"/>
</g>
<defs>
<clipPath id="clip0_1_1062">
<rect width="15.5556" height="15.5556" fill="white" transform="translate(0.222168 0.222168)"/>
</clipPath>
</defs>
</svg>
